#N canvas 205 445 663 300 10;
#X obj 31 9 inlet;
#X obj 298 193 vbap, f 12;
#X obj 298 214 unpack;
#X obj 298 235 + 1;
#X obj 298 256 pack;
#X obj 272 7 inlet;
#X obj 294 137 t b f;
#X obj 289 161 r vbap-\$1;
#X obj 95 272 clone -s 1 _spat \$2;
#X obj 359 140 r vbap;
#X obj 31 37 unpack;
#X obj 59 173 line~;
#X obj 59 215 *~;
#X msg 155 111 0 \, 1 \$1;
#X obj 155 132 line~;
#X obj 155 153 *~ 2048;
#X obj 155 174 +~ 1;
#X obj 31 94 * 0.9;
#X obj 59 194 tabosc4~ 0-gau;
#X obj 155 195 tabread4~ 0-poi;
#X obj 155 216 lop~ 2;
#X obj 31 58 t f f b b;
#X obj 74 85 crand 0.7 0.9;
#X obj 34 126 pack;
#X obj 172 79 t f b;
#X obj 211 165 crand 1 3;
#X obj 68 119 crand 30 100;
#X obj 272 41 unpack f f f;
#X obj 271 81 atan2;
#X msg 359 29 180 3.14156;
#X obj 359 50 /;
#X obj 271 102 *;
#X obj 359 9 loadbang;
#X obj 128 19 loadbang;
#X obj 272 62 fd_norm;
#X obj 322 80 fd_norm;
#X obj 476 11 inlet;
#X obj 476 32 unpack s s;
#X msg 476 53 set \$1;
#X msg 505 84 set \$1;
#X connect 0 0 10 0;
#X connect 1 0 2 0;
#X connect 2 0 3 0;
#X connect 2 1 4 1;
#X connect 3 0 4 0;
#X connect 4 0 8 1;
#X connect 5 0 27 0;
#X connect 6 0 1 0;
#X connect 6 1 1 1;
#X connect 7 0 1 0;
#X connect 9 0 1 0;
#X connect 10 0 21 0;
#X connect 10 1 24 0;
#X connect 11 0 18 0;
#X connect 12 0 8 0;
#X connect 13 0 14 0;
#X connect 14 0 15 0;
#X connect 15 0 16 0;
#X connect 16 0 19 0;
#X connect 17 0 23 0;
#X connect 18 0 12 0;
#X connect 19 0 20 0;
#X connect 20 0 12 1;
#X connect 21 0 17 0;
#X connect 21 1 11 0;
#X connect 22 0 17 1;
#X connect 23 0 11 0;
#X connect 24 0 13 0;
#X connect 24 1 25 0;
#X connect 25 0 20 1;
#X connect 26 0 23 1;
#X connect 27 0 34 0;
#X connect 27 1 35 0;
#X connect 28 0 31 0;
#X connect 29 0 30 0;
#X connect 30 0 31 1;
#X connect 31 0 6 0;
#X connect 32 0 29 0;
#X connect 33 0 22 0;
#X connect 33 0 26 0;
#X connect 34 0 28 0;
#X connect 35 0 28 1;
#X connect 36 0 37 0;
#X connect 37 0 38 0;
#X connect 37 1 39 0;
#X connect 38 0 18 0;
#X connect 39 0 19 0;
