#N canvas 542 375 450 300 10;
#X obj 31 9 inlet;
#X obj 31 76 unpack;
#X obj 9 115 pack f 3;
#X obj 10 142 line~;
#X obj 95 224 *~;
#X obj 111 117 line~;
#X obj 111 138 *~ 2048;
#X obj 111 159 +~ 1;
#X obj 111 180 tabread4~;
#X obj 111 201 lop~ 100;
#X obj 110 30 t f b f b;
#X obj 190 201 fd_switch;
#X obj 190 85 del;
#X obj 190 127 t f f;
#X obj 31 30 spigot 1;
#X obj 206 35 == 0;
#X obj 298 193 vbap, f 12;
#X obj 298 214 unpack;
#X obj 298 235 + 1;
#X obj 298 256 pack;
#X obj 298 6 inlet;
#X obj 298 97 unpack;
#X obj 298 118 t b f;
#X obj 289 161 r vbap-\$1;
#X obj 370 5 inlet;
#X obj 370 26 unpack s s;
#X msg 370 47 set \$1;
#X msg 380 57 set \$1;
#X obj 95 272 clone -s 1 _spat \$2;
#X obj 359 140 r vbap;
#X msg 120 79 0 \, 1 \$1;
#X msg 230 66 1;
#X msg 190 106 0;
#X msg 126 56 0;
#X obj 12 167 tabosc4~ 0-gau;
#X connect 0 0 14 0;
#X connect 1 0 2 0;
#X connect 1 1 10 0;
#X connect 2 0 3 0;
#X connect 3 0 34 0;
#X connect 4 0 28 0;
#X connect 5 0 6 0;
#X connect 6 0 7 0;
#X connect 7 0 8 0;
#X connect 8 0 9 0;
#X connect 9 0 4 1;
#X connect 10 0 30 0;
#X connect 10 1 33 0;
#X connect 10 2 12 0;
#X connect 10 3 31 0;
#X connect 12 0 32 0;
#X connect 13 0 11 0;
#X connect 13 1 15 0;
#X connect 14 0 1 0;
#X connect 16 0 17 0;
#X connect 17 0 18 0;
#X connect 17 1 19 1;
#X connect 18 0 19 0;
#X connect 19 0 28 1;
#X connect 20 0 21 0;
#X connect 21 0 22 0;
#X connect 21 1 16 2;
#X connect 22 0 16 0;
#X connect 22 1 16 1;
#X connect 23 0 16 0;
#X connect 24 0 25 0;
#X connect 25 0 26 0;
#X connect 25 1 27 0;
#X connect 26 0 34 0;
#X connect 27 0 8 0;
#X connect 29 0 16 0;
#X connect 30 0 5 0;
#X connect 31 0 13 0;
#X connect 32 0 13 0;
#X connect 33 0 8 1;
#X connect 33 0 34 1;
#X connect 34 0 4 0;
