#N canvas 614 434 902 441 10;
#X obj 31 9 inlet;
#X obj 298 193 vbap, f 12;
#X obj 298 214 unpack;
#X obj 298 235 + 1;
#X obj 298 256 pack;
#X obj 272 7 inlet;
#X obj 289 161 r vbap-\$1;
#X obj 86 374 clone -s 1 _spat \$2;
#X obj 359 140 r vbap;
#X obj 31 37 unpack;
#X obj 50 275 line~;
#X obj 50 317 *~;
#X msg 152 200 0 \, 1 \$1;
#X obj 152 221 line~;
#X obj 152 242 *~ 2048;
#X obj 152 263 +~ 1;
#X obj 19 213 * 0.9;
#X obj 50 296 tabosc4~ 0-gau;
#X obj 152 284 tabread4~ 0-poi;
#X obj 152 305 lop~ 2;
#X obj 15 254 pack;
#X obj 167 172 t f b;
#X obj 208 254 crand 1 3;
#X obj 262 38 unpack f f f;
#X obj 128 19 loadbang;
#X obj 476 11 inlet;
#X obj 476 32 unpack s s;
#X msg 476 53 set \$1;
#X msg 505 84 set \$1;
#X obj 448 194 outlet;
#X obj 294 137 t b f f;
#X obj 561 156 atan2;
#X msg 649 104 180 3.14156;
#X obj 649 125 /;
#X obj 561 177 *;
#X obj 649 84 loadbang;
#X obj 564 130 fd_norm;
#X obj 612 155 fd_norm;
#X obj 260 67 atan2;
#X obj 260 88 * 360;
#X obj 260 109 * 4;
#X obj 14 84 f \$1;
#X obj 14 105 * 0.5;
#X obj 31 58 t b f b b;
#X obj 19 186 t f f;
#X obj 14 147 mtof;
#X obj 317 81 r spread;
#X obj 76 123 crand 0.6 0.9;
#X obj 69 171 crand 30 200;
#X obj 14 126 + 77;
#X floatatom 192 76 5 0 0 0 - - -, f 5;
#X floatatom 190 48 5 0 0 0 - - -, f 5;
#X floatatom 301 58 5 0 0 0 - - -, f 5;
#X obj 57 87 r base;
#X connect 0 0 9 0;
#X connect 1 0 2 0;
#X connect 2 0 3 0;
#X connect 2 1 4 1;
#X connect 3 0 4 0;
#X connect 4 0 7 1;
#X connect 5 0 23 0;
#X connect 6 0 1 0;
#X connect 8 0 1 0;
#X connect 9 0 43 0;
#X connect 9 1 21 0;
#X connect 10 0 17 0;
#X connect 11 0 7 0;
#X connect 12 0 13 0;
#X connect 13 0 14 0;
#X connect 14 0 15 0;
#X connect 15 0 18 0;
#X connect 16 0 20 0;
#X connect 17 0 11 0;
#X connect 18 0 19 0;
#X connect 19 0 11 1;
#X connect 20 0 10 0;
#X connect 21 0 12 0;
#X connect 21 1 22 0;
#X connect 22 0 19 1;
#X connect 23 0 38 0;
#X connect 23 0 51 0;
#X connect 23 1 38 1;
#X connect 23 1 52 0;
#X connect 24 0 47 0;
#X connect 24 0 48 0;
#X connect 25 0 26 0;
#X connect 26 0 27 0;
#X connect 26 1 28 0;
#X connect 27 0 17 0;
#X connect 28 0 18 0;
#X connect 30 0 1 0;
#X connect 30 1 1 1;
#X connect 30 2 29 0;
#X connect 31 0 34 0;
#X connect 32 0 33 0;
#X connect 33 0 34 1;
#X connect 35 0 32 0;
#X connect 36 0 31 0;
#X connect 37 0 31 1;
#X connect 38 0 39 0;
#X connect 38 0 50 0;
#X connect 39 0 40 0;
#X connect 40 0 30 0;
#X connect 41 0 42 0;
#X connect 42 0 49 0;
#X connect 43 0 41 0;
#X connect 44 0 16 0;
#X connect 44 1 10 0;
#X connect 45 0 44 0;
#X connect 46 0 40 1;
#X connect 47 0 16 1;
#X connect 48 0 20 1;
#X connect 49 0 45 0;
#X connect 53 0 49 1;
