#N canvas 0 22 450 300 10;
#X obj 103 143 throw~ dacout-1;
#X obj 121 162 throw~ dacout-2;
#X obj 139 183 throw~ dacout-3;
#X obj 157 202 throw~ dacout-4;
#X obj 57 43 catch~ revout-\$1;
#X obj 202 24 inlet;
#X obj 248 24 inlet;
#X obj 293 24 inlet;
#X obj 344 22 inlet;
#X obj 103 122 rev3~ 100 90 3000 20;
#X connect 4 0 9 0;
#X connect 5 0 9 2;
#X connect 6 0 9 3;
#X connect 7 0 9 4;
#X connect 8 0 9 5;
#X connect 9 0 0 0;
#X connect 9 1 1 0;
#X connect 9 2 2 0;
#X connect 9 3 3 0;
