#N canvas 662 460 450 300 10;
#X obj 73 33 inlet;
#X obj 73 54 unpack f f f;
#X obj 199 217 pointer;
#X obj 79 249 set birds x y;
#X msg 204 67 traverse pd-plot \, bang;
#X obj 205 86 pointer;
#X obj 205 107 t b p;
#X obj 203 46 inlet;
#X obj 204 126 f \$1;
#X obj 204 147 + 10;
#X msg 203 166 50 50 \$1;
#X obj 203 187 append birds x y col;
#X connect 0 0 1 0;
#X connect 1 0 3 0;
#X connect 1 1 3 1;
#X connect 2 0 3 2;
#X connect 4 0 5 0;
#X connect 5 0 6 0;
#X connect 6 0 8 0;
#X connect 6 1 11 3;
#X connect 7 0 4 0;
#X connect 8 0 9 0;
#X connect 9 0 10 0;
#X connect 10 0 11 0;
#X connect 11 0 2 0;
