#N struct birds float x float y float col float num;
#N canvas 540 300 1236 852 10;
#N canvas 0 22 450 300 inspiration 0;
#X text 14 27 gaviotas vienen de lo lejos;
#X text 15 44 suena un trueno de repente;
#X text 17 65 gaviotas giran gritan;
#X text 19 82 rondando el centro;
#X text 22 105 empieza a llover a lo lejos;
#X text 24 120 y de cerca cae la lluvia;
#X text 27 141 rondando el centro;
#X text 29 155 gaviotas giran gritando;
#X text 33 177 se van \, ellas;
#X text 36 194 se queda su perfume;
#X text 41 210 algun dia las volvere a ver;
#X text 45 230 todavia las escucho;
#X text 51 246 rondando;
#X restore 18 17 pd inspiration;
#X obj 17 41 fd_windows 0 2051;
#X obj 371 140 vsl 15 128 0 127 0 0 vol vol-set vol 0 -9 0 10 -262144
-1 -1 6700 1;
#X obj 281 115 env~;
#X floatatom 281 136 5 0 0 0 - - -, f 5;
#X obj 38 100 tgl 15 0 empty empty empty 17 7 0 10 -262144 -1 -1 0
1;
#X obj 39 119 metro 10;
#X obj 39 161 random 20;
#X obj 39 140 t b b b;
#X obj 100 178 mtof;
#X obj 39 182 pack;
#X obj 39 203 list;
#X floatatom 161 195 5 0 0 0 - - -, f 5;
#X obj 281 94 clone -s 1 fd_dacout 4 vol;
#X floatatom 100 90 5 0 0 0 - - -, f 5;
#X msg 161 215 all \$1 0;
#X msg 202 257 16 277.183 959;
#X obj 100 157 crand 66 68;
#X obj 182 44 define_loudspeakers 2 0 90 180 270;
#X msg 182 24 bang;
#X obj 182 65 s vbap;
#X msg 306 167 360;
#X obj 306 188 / 3;
#X floatatom 306 209 5 0 0 0 - - -, f 5;
#X obj 306 229 * 2;
#X floatatom 306 250 5 0 0 0 - - -, f 5;
#X obj 172 141 random 500;
#X obj 172 162 + 100;
#X msg 502 417 dump;
#X msg 759 71 neighbors \$1;
#X floatatom 759 56 5 0 4 0 - neighbors -, f 5;
#X floatatom 760 89 5 0 0 0 - maxspeed -, f 5;
#X msg 760 104 maxspeed \$1;
#X floatatom 759 126 5 0 0 0 - minspeed -, f 5;
#X msg 759 141 minspeed \$1;
#X floatatom 771 161 5 0 0 0 - center -, f 5;
#X msg 771 176 center \$1;
#X floatatom 808 203 5 0 0 0 - attract -, f 5;
#X msg 808 218 attract \$1;
#X floatatom 753 231 5 0 0 0 - match -, f 5;
#X msg 753 246 match \$1;
#X floatatom 711 263 5 0 0 0 - avoid -, f 5;
#X msg 711 278 avoid \$1;
#X floatatom 673 302 5 0 0 0 - repel -, f 5;
#X msg 673 317 repel \$1;
#X floatatom 644 348 5 0 0 0 - edgedist -, f 5;
#X msg 644 363 edgedist \$1;
#X floatatom 808 360 5 0 0 0 - speed -, f 5;
#X msg 808 375 speed \$1;
#X floatatom 811 396 5 0 0 0 - inertia -, f 5;
#X msg 811 411 inertia \$1;
#X floatatom 817 431 5 0 0 0 - accel -, f 5;
#X msg 817 446 accel \$1;
#X floatatom 823 469 5 0 0 0 - prefdist -, f 5;
#X msg 823 484 prefdist \$1;
#X msg 502 436 reset;
#X floatatom 754 514 5 0 0 0 - flyrect[0] -, f 5;
#X floatatom 793 514 5 0 0 0 - flyrect[1] -, f 5;
#X floatatom 832 514 5 0 0 0 - flyrect[2] -, f 5;
#X floatatom 871 514 5 0 0 0 - - -, f 5;
#X floatatom 753 573 5 0 0 0 - - -, f 5;
#X floatatom 793 573 5 0 0 0 - - -, f 5;
#X floatatom 753 21 5 0 0 0 - - -, f 5;
#X msg 753 36 number \$1;
#X floatatom 502 383 5 0 0 0 - - -, f 5;
#X msg 502 398 mode \$1;
#X obj 753 634 s boidParam;
#X obj 502 457 s boidParam;
#X msg 753 550 flyrect \$1 \$2 \$3 \$4 \$5 \$6;
#X obj 753 532 pack 0 0 0 0 0 0;
#X floatatom 910 514 5 0 0 0 - - -, f 5;
#X floatatom 949 514 5 0 0 0 - - -, f 5;
#X msg 753 610 attractpt \$1 \$2 \$3;
#X obj 753 590 pack 0 0 0;
#X floatatom 832 573 5 0 0 0 - - -, f 5;
#X obj 292 337 r boidParam;
#X obj 266 336 bng 15 250 50 0 empty empty empty 0 -6 0 8 -262144 -1
-1;
#X obj 262 288 tgl 15 0 empty empty empty 17 7 0 10 -262144 -1 -1 0
1;
#X obj 262 309 metro 100;
#X floatatom 322 279 5 0 0 0 - - -, f 5;
#X obj 1018 30 loadbang;
#X obj 1078 30 r reset;
#X msg 999 87 \; neighbors 4;
#X msg 999 177 \; center 1;
#X msg 999 237 \; match 1;
#X msg 999 327 \; edgedist 1;
#X msg 999 357 \; speed 3;
#X obj 1000 58 b;
#X obj 1001 30 bng 15 250 50 0 empty empty empty 0 -6 0 8 -262144 -1
-1;
#X msg 999 267 \; avoid 2;
#X msg 999 297 \; repel 2;
#X msg 999 387 \; inertia 8;
#X msg 999 147 \; minspeed 1;
#X msg 999 117 \; maxspeed 3;
#X msg 999 207 \; attract 3;
#X msg 999 417 \; accel 2;
#X obj 329 407 print dump;
#X floatatom 220 106 5 0 0 0 - - -, f 5;
#X floatatom 210 161 5 0 0 0 - - -, f 5;
#N canvas 659 79 962 487 structur 0;
#X obj 22 18 struct birds float x float y float col float num;
#X obj 33 71 drawnumber num;
#X obj 33 51 adrawcurve col 2 0 0 0 10 10 10 10 0 0 0;
#X restore 61 384 pd structur;
#N canvas 60 232 626 552 plot 1;
#X scalar birds 107.464 99.7888 900 0 \;;
#X scalar birds 122.885 98.9342 29 388.972 \;;
#X scalar birds 66.2989 82.3025 28 295.388 \;;
#X scalar birds 88.4245 58.0343 27 431.242 \;;
#X scalar birds 82.0581 107.155 26 284.677 \;;
#X scalar birds 111.526 63.9096 25 457.568 \;;
#X scalar birds 118.55 93.2742 24 393.852 \;;
#X scalar birds 113.153 94.8037 23 380.456 \;;
#X scalar birds 127.273 137.003 22 326.089 \;;
#X scalar birds 118.44 89.2807 21 402.871 \;;
#X scalar birds 119.856 115.913 20 349.402 \;;
#X scalar birds 90.2338 115.315 19 289.23 \;;
#X scalar birds 118.057 90.8296 18 398.58 \;;
#X scalar birds 72.5792 71.7013 17 344.77 \;;
#X scalar birds 121.671 86.4718 16 415.093 \;;
#X scalar birds 109.552 100.149 15 361.639 \;;
#X scalar birds 52.7123 80.3532 14 252.903 \;;
#X scalar birds 73.326 68.7443 13 356.162 \;;
#X scalar birds 87.5418 89.0865 12 338.31 \;;
#X scalar birds 109.611 53.4929 11 486.466 \;;
#X scalar birds 81.4872 125.869 10 250.271 \;;
#X restore 61 404 pd plot;
#X msg 335 491 \; pd-plot clear;
#X msg 305 457 all bang;
#X msg 168 482 0 10 10;
#X msg 446 545 traverse pd-plot \, bang;
#X obj 446 566 pointer;
#X obj 446 587 t b p;
#X msg 446 608 50 50 900;
#X obj 595 642 r boidParam;
#X obj 595 663 route attractpt;
#X obj 595 684 unpack;
#X obj 446 629 append birds x y col;
#X obj 570 728 set birds x y;
#X floatatom 502 132 5 0 0 0 - - -, f 5;
#X obj 502 152 t f f;
#X obj 502 173 pack;
#X obj 542 177 + 2;
#X msg 502 194 set \$1 \$2;
#X msg 464 295 all 0-gau 0-exp;
#X obj 492 324 t a;
#X msg 466 271 all 0-sin 0-cau;
#X msg 473 243 all 0-tri 0-poi;
#X obj 266 364 boids/boids3d 20 0;
#X msg 999 447 \; prefdist 1.5 \; number 20;
#X obj 953 596 tgl 15 0 empty empty empty 17 7 0 10 -262144 -1 -1 0
1;
#X obj 953 641 metro 100;
#X obj 953 662 lorenz;
#X obj 953 683 unpack f f f;
#X obj 953 761 * 100;
#X obj 953 782 + 100;
#X obj 1003 762 * 100;
#X obj 1003 783 + 100;
#X msg 1056 583 100;
#X obj 1056 604 until;
#X floatatom 1002 602 5 0 0 0 - - -, f 5;
#X floatatom 1064 682 5 0 0 0 - - -, f 5;
#X obj 207 530 clone _setter 20;
#X floatatom 519 25 5 0 0 0 - - -, f 5;
#X obj 519 45 s spread;
#X floatatom 1077 726 5 0 0 0 - - -, f 5;
#X floatatom 967 808 5 0 0 0 - - -, f 5;
#X floatatom 1003 804 5 0 0 0 - - -, f 5;
#X obj 276 394 boids/boids2d;
#X msg 536 89 number 20 4 1.5 1.2 1.2 1.23 0.3;
#X obj 857 32 text define bpref;
#X obj 93 646 text get bpref;
#X msg 93 625 0;
#X floatatom 130 574 5 0 0 0 - - -, f 5;
#X floatatom 151 608 5 0 0 0 - - -, f 5;
#X msg 857 6 read bpref-0.txt;
#X obj 191 733 counter;
#X obj 229 636 bng 15 250 50 0 empty empty empty 17 7 0 10 -262144
-1 -1;
#X msg 257 647;
#X msg 231 705 0;
#X obj 174 666 sel 0 1 2;
#X obj 49 681 route bang;
#X obj 84 761 s boidParam;
#X obj 90 715 list trim;
#X obj 39 259 clone _gaviota 20 4;
#X floatatom 103 295 5 0 0 0 - - -, f 5;
#X obj 103 315 s base;
#X obj 953 704 fd_norm;
#X obj 1003 705 fd_norm;
#X connect 3 0 4 0;
#X connect 5 0 6 0;
#X connect 6 0 8 0;
#X connect 7 0 10 0;
#X connect 8 0 7 0;
#X connect 8 1 17 0;
#X connect 8 2 26 0;
#X connect 9 0 10 1;
#X connect 10 0 11 0;
#X connect 11 0 158 0;
#X connect 12 0 15 0;
#X connect 13 0 3 0;
#X connect 14 0 6 1;
#X connect 15 0 158 1;
#X connect 16 0 158 0;
#X connect 17 0 9 0;
#X connect 18 0 20 0;
#X connect 19 0 18 0;
#X connect 21 0 22 0;
#X connect 22 0 23 0;
#X connect 23 0 24 0;
#X connect 24 0 25 0;
#X connect 26 0 27 0;
#X connect 27 0 11 1;
#X connect 28 0 67 0;
#X connect 29 0 66 0;
#X connect 30 0 29 0;
#X connect 31 0 32 0;
#X connect 32 0 66 0;
#X connect 33 0 34 0;
#X connect 34 0 66 0;
#X connect 35 0 36 0;
#X connect 36 0 66 0;
#X connect 37 0 38 0;
#X connect 38 0 66 0;
#X connect 39 0 40 0;
#X connect 40 0 66 0;
#X connect 41 0 42 0;
#X connect 42 0 66 0;
#X connect 43 0 44 0;
#X connect 44 0 66 0;
#X connect 45 0 46 0;
#X connect 46 0 66 0;
#X connect 47 0 48 0;
#X connect 48 0 66 0;
#X connect 49 0 50 0;
#X connect 50 0 66 0;
#X connect 51 0 52 0;
#X connect 52 0 66 0;
#X connect 53 0 54 0;
#X connect 54 0 66 0;
#X connect 55 0 67 0;
#X connect 56 0 69 0;
#X connect 57 0 69 1;
#X connect 58 0 69 2;
#X connect 59 0 69 3;
#X connect 60 0 73 0;
#X connect 61 0 73 1;
#X connect 62 0 63 0;
#X connect 63 0 66 0;
#X connect 64 0 65 0;
#X connect 65 0 67 0;
#X connect 68 0 66 0;
#X connect 69 0 68 0;
#X connect 70 0 69 4;
#X connect 71 0 69 5;
#X connect 72 0 66 0;
#X connect 73 0 72 0;
#X connect 74 0 73 2;
#X connect 75 0 122 0;
#X connect 76 0 122 0;
#X connect 77 0 78 0;
#X connect 78 0 76 0;
#X connect 79 0 78 1;
#X connect 80 0 87 0;
#X connect 81 0 87 0;
#X connect 87 0 82 0;
#X connect 87 0 93 0;
#X connect 87 0 92 0;
#X connect 87 0 83 0;
#X connect 87 0 94 0;
#X connect 87 0 84 0;
#X connect 87 0 89 0;
#X connect 87 0 90 0;
#X connect 87 0 86 0;
#X connect 87 0 91 0;
#X connect 87 0 95 0;
#X connect 87 0 123 0;
#X connect 88 0 87 0;
#X connect 97 0 26 1;
#X connect 98 0 27 1;
#X connect 102 0 136 2;
#X connect 103 0 136 0;
#X connect 104 0 105 0;
#X connect 105 0 106 0;
#X connect 106 0 107 0;
#X connect 106 1 111 3;
#X connect 107 0 111 0;
#X connect 108 0 109 0;
#X connect 109 0 110 0;
#X connect 110 0 112 0;
#X connect 110 1 112 1;
#X connect 111 0 112 2;
#X connect 113 0 114 0;
#X connect 114 0 115 0;
#X connect 114 1 116 0;
#X connect 115 0 117 0;
#X connect 116 0 115 1;
#X connect 117 0 17 0;
#X connect 118 0 119 0;
#X connect 119 0 158 2;
#X connect 120 0 119 0;
#X connect 121 0 119 0;
#X connect 122 0 136 0;
#X connect 122 0 158 1;
#X connect 122 1 96 0;
#X connect 124 0 125 0;
#X connect 125 0 126 0;
#X connect 126 0 127 0;
#X connect 127 0 161 0;
#X connect 127 1 162 0;
#X connect 128 0 129 0;
#X connect 129 0 73 0;
#X connect 129 0 140 0;
#X connect 130 0 131 0;
#X connect 131 0 73 1;
#X connect 131 0 141 0;
#X connect 132 0 133 0;
#X connect 133 0 126 0;
#X connect 134 0 125 1;
#X connect 135 0 128 1;
#X connect 135 0 130 1;
#X connect 137 0 138 0;
#X connect 139 0 129 1;
#X connect 139 0 131 1;
#X connect 145 0 155 0;
#X connect 145 1 154 0;
#X connect 146 0 145 0;
#X connect 147 0 145 0;
#X connect 148 0 145 1;
#X connect 149 0 144 0;
#X connect 150 0 145 0;
#X connect 151 0 150 0;
#X connect 153 0 150 0;
#X connect 154 1 151 0;
#X connect 154 2 153 0;
#X connect 155 1 157 0;
#X connect 157 0 156 0;
#X connect 158 0 136 1;
#X connect 159 0 160 0;
#X connect 161 1 128 0;
#X connect 162 1 130 0;
