#N canvas 533 48 450 300 10;
#N canvas 0 22 450 300 inspiration 0;
#X text 14 27 gaviotas vienen de lo lejos;
#X text 15 44 suena un trueno de repente;
#X text 17 65 gaviotas giran gritan;
#X text 19 82 rondando el centro;
#X text 22 105 empieza a llover a lo lejos;
#X text 24 120 y de cerca cae la lluvia;
#X text 27 141 rondando el centro;
#X text 29 155 gaviotas giran gritando;
#X text 33 177 se van \, ellas;
#X text 36 194 se queda su perfume;
#X text 41 210 algun dia las volvere a ver;
#X text 45 230 todavia las escucho;
#X text 51 246 rondando;
#X restore 8 12 pd inspiration;
#X obj 7 36 fd_windows 0 2051;
#X obj 205 46 define_loudspeakers 2 0 90 180 270;
#X msg 205 26 bang;
#X obj 205 67 s vbap;
#X obj 387 133 vsl 15 128 0 127 0 0 vol vol-set vol 0 -9 0 10 -262144
-1 -1 8600 1;
#X obj 262 98 env~;
#X floatatom 262 119 5 0 0 0 - - -, f 5;
#X obj 29 94 tgl 15 0 empty empty empty 17 7 0 10 -262144 -1 -1 1 1
;
#X obj 29 114 metro 10;
#X obj 29 156 random 20;
#X obj 29 135 t b b b;
#X obj 90 131 random 20;
#X obj 90 152 + 60;
#X obj 90 173 mtof;
#X obj 162 131 random 1000;
#X obj 162 152 + 20;
#X obj 29 177 pack;
#X obj 29 198 list;
#X floatatom 151 190 5 0 0 0 - - -, f 5;
#X obj 262 77 clone -s 1 fd_dacout 4 vol;
#X floatatom 90 85 5 0 0 0 - - -, f 5;
#X msg 151 210 all \$1 0;
#X msg 231 177 all 0-bla 0-exp;
#X msg 192 252 16 277.183 959;
#X obj 29 254 clone _gaviota 20 4;
#X connect 2 0 4 0;
#X connect 3 0 2 0;
#X connect 6 0 7 0;
#X connect 8 0 9 0;
#X connect 9 0 11 0;
#X connect 10 0 17 0;
#X connect 11 0 10 0;
#X connect 11 1 12 0;
#X connect 11 2 15 0;
#X connect 12 0 13 0;
#X connect 13 0 14 0;
#X connect 14 0 17 1;
#X connect 15 0 16 0;
#X connect 16 0 18 1;
#X connect 17 0 18 0;
#X connect 18 0 25 0;
#X connect 19 0 22 0;
#X connect 20 0 6 0;
#X connect 21 0 9 1;
#X connect 22 0 25 1;
#X connect 23 0 25 2;
#X connect 24 0 25 0;
