#N struct birds float x float y float col;
#N canvas 540 300 1236 852 10;
#N canvas 0 22 450 300 inspiration 0;
#X text 14 27 gaviotas vienen de lo lejos;
#X text 15 44 suena un trueno de repente;
#X text 17 65 gaviotas giran gritan;
#X text 19 82 rondando el centro;
#X text 22 105 empieza a llover a lo lejos;
#X text 24 120 y de cerca cae la lluvia;
#X text 27 141 rondando el centro;
#X text 29 155 gaviotas giran gritando;
#X text 33 177 se van \, ellas;
#X text 36 194 se queda su perfume;
#X text 41 210 algun dia las volvere a ver;
#X text 45 230 todavia las escucho;
#X text 51 246 rondando;
#X restore 18 17 pd inspiration;
#X obj 17 41 fd_windows 0 2051;
#X obj 371 140 vsl 15 128 0 127 0 0 vol vol-set vol 0 -9 0 10 -262144
-1 -1 10900 1;
#X obj 281 115 env~;
#X floatatom 281 136 5 0 0 0 - - -, f 5;
#X obj 38 100 tgl 15 0 empty empty empty 17 7 0 10 -262144 -1 -1 0
1;
#X obj 39 119 metro 10;
#X obj 39 161 random 20;
#X obj 39 140 t b b b;
#X obj 100 178 mtof;
#X obj 39 182 pack;
#X obj 39 203 list;
#X floatatom 161 195 5 0 0 0 - - -, f 5;
#X obj 281 94 clone -s 1 fd_dacout 4 vol;
#X floatatom 100 90 5 0 0 0 - - -, f 5;
#X msg 161 215 all \$1 0;
#X msg 202 257 16 277.183 959;
#X obj 100 157 crand 66 68;
#X obj 182 44 define_loudspeakers 2 0 90 180 270;
#X msg 182 24 bang;
#X obj 182 65 s vbap;
#X msg 306 167 360;
#X obj 306 188 / 3;
#X floatatom 306 209 5 0 0 0 - - -, f 5;
#X obj 306 229 * 2;
#X floatatom 306 250 5 0 0 0 - - -, f 5;
#X obj 172 141 random 500;
#X obj 172 162 + 100;
#X msg 502 417 dump;
#X msg 753 71 neighbors \$1;
#X floatatom 753 56 5 0 4 0 - neighbors -, f 5;
#X floatatom 753 91 5 0 0 0 - maxspeed -, f 5;
#X msg 753 106 maxspeed \$1;
#X floatatom 753 126 5 0 0 0 - minspeed -, f 5;
#X msg 753 141 minspeed \$1;
#X floatatom 753 161 5 0 0 0 - center -, f 5;
#X msg 753 176 center \$1;
#X floatatom 753 196 5 0 0 0 - attract -, f 5;
#X msg 753 211 attract \$1;
#X floatatom 753 231 5 0 0 0 - match -, f 5;
#X msg 753 246 match \$1;
#X floatatom 753 266 5 0 0 0 - avoid -, f 5;
#X msg 753 281 avoid \$1;
#X floatatom 753 301 5 0 0 0 - repel -, f 5;
#X msg 753 316 repel \$1;
#X floatatom 753 336 5 0 0 0 - edgedist -, f 5;
#X msg 753 351 edgedist \$1;
#X floatatom 753 371 5 0 0 0 - speed -, f 5;
#X msg 753 386 speed \$1;
#X floatatom 753 406 5 0 0 0 - inertia -, f 5;
#X msg 753 421 inertia \$1;
#X floatatom 753 441 5 0 0 0 - accel -, f 5;
#X msg 753 456 accel \$1;
#X floatatom 753 476 5 0 0 0 - prefdist -, f 5;
#X msg 753 491 prefdist \$1;
#X msg 502 436 reset;
#X floatatom 754 514 5 0 0 0 - flyrect[0] -, f 5;
#X floatatom 793 514 5 0 0 0 - flyrect[1] -, f 5;
#X floatatom 832 514 5 0 0 0 - flyrect[2] -, f 5;
#X floatatom 871 514 5 0 0 0 - - -, f 5;
#X floatatom 753 573 5 0 0 0 - - -, f 5;
#X floatatom 793 573 5 0 0 0 - - -, f 5;
#X floatatom 753 21 5 0 0 0 - - -, f 5;
#X msg 753 36 number \$1;
#X floatatom 502 383 5 0 0 0 - - -, f 5;
#X msg 502 398 mode \$1;
#X obj 753 634 s boidParam;
#X obj 502 457 s boidParam;
#X msg 753 550 flyrect \$1 \$2 \$3 \$4 \$5 \$6;
#X obj 753 532 pack 0 0 0 0 0 0;
#X floatatom 910 514 5 0 0 0 - - -, f 5;
#X floatatom 949 514 5 0 0 0 - - -, f 5;
#X msg 753 610 attractpt \$1 \$2 \$3;
#X obj 753 590 pack 0 0 0;
#X floatatom 832 573 5 0 0 0 - - -, f 5;
#X obj 292 337 r boidParam;
#X obj 266 336 bng 15 250 50 0 empty empty empty 0 -6 0 8 -262144 -1
-1;
#X obj 266 364 boids3d 20 0;
#X obj 262 288 tgl 15 0 empty empty empty 17 7 0 10 -262144 -1 -1 0
1;
#X obj 262 309 metro 100;
#X floatatom 322 279 5 0 0 0 - - -, f 5;
#X obj 1018 30 loadbang;
#X obj 1078 30 r reset;
#X msg 999 87 \; neighbors 4;
#X msg 999 177 \; center 1;
#X msg 999 237 \; match 1;
#X msg 999 327 \; edgedist 1;
#X msg 999 357 \; speed 3;
#X obj 1000 58 b;
#X obj 1001 30 bng 15 250 50 0 empty empty empty 0 -6 0 8 -262144 -1
-1;
#X msg 999 267 \; avoid 2;
#X msg 999 297 \; repel 2;
#X msg 999 387 \; inertia 8;
#X msg 999 147 \; minspeed 1;
#X msg 999 117 \; maxspeed 3;
#X msg 999 207 \; attract 3;
#X msg 999 417 \; accel 2;
#X msg 999 447 \; prefdist 1.5;
#X obj 329 407 print dump;
#X floatatom 220 106 5 0 0 0 - - -, f 5;
#X floatatom 210 161 5 0 0 0 - - -, f 5;
#N canvas 659 79 962 487 structur 0;
#X obj 22 18 struct birds float x float y float col;
#X obj 33 51 drawcurve col 2 0 0 0 10 10 10 10 0 0 0;
#X restore 61 384 pd structur;
#N canvas 32 441 536 540 plot 1;
#X scalar birds 266 53 900 \;;
#X scalar birds 265.661 52.983 29 \;;
#X scalar birds 237.54 19.4137 28 \;;
#X scalar birds 204.934 14.5878 27 \;;
#X scalar birds 200.999 25.8453 26 \;;
#X scalar birds 243.352 42.7158 25 \;;
#X scalar birds 198.827 16.9318 24 \;;
#X scalar birds 245.326 21.2653 23 \;;
#X scalar birds 237.293 55.3055 22 \;;
#X scalar birds 261.71 -14.0022 21 \;;
#X scalar birds 242.366 23.9655 20 \;;
#X scalar birds 242.267 21.9443 19 \;;
#X scalar birds 251.363 13.1698 18 \;;
#X scalar birds 280.601 16.715 17 \;;
#X scalar birds 285.5 17.8689 16 \;;
#X scalar birds 209.654 31.5933 15 \;;
#X scalar birds 165.444 45.4753 14 \;;
#X scalar birds 265.192 15.8759 13 \;;
#X scalar birds 255.4 32.3577 12 \;;
#X scalar birds 225.507 12.1849 11 \;;
#X scalar birds 250.299 31.001 10 \;;
#X restore 61 404 pd plot;
#X msg 335 491 \; pd-plot clear;
#X msg 305 457 all bang;
#X msg 168 482 0 10 10;
#X obj 207 530 clone _setter 20;
#X msg 446 545 traverse pd-plot \, bang;
#X obj 446 566 pointer;
#X obj 446 587 t b p;
#X msg 446 608 50 50 900;
#X obj 595 642 r boidParam;
#X obj 595 663 route attractpt;
#X obj 595 684 unpack;
#X obj 446 629 append birds x y col;
#X obj 570 728 set birds x y;
#X floatatom 502 132 5 0 0 0 - - -, f 5;
#X obj 502 152 t f f;
#X obj 502 173 pack;
#X obj 542 177 + 2;
#X msg 502 194 set \$1 \$2;
#X obj 39 259 clone _gaviota 20 4;
#X msg 464 295 all 0-gau 0-exp;
#X obj 492 324 t a;
#X msg 466 271 all 0-sin 0-cau;
#X msg 473 243 all 0-tri 0-poi;
#X connect 3 0 4 0;
#X connect 5 0 6 0;
#X connect 6 0 8 0;
#X connect 7 0 10 0;
#X connect 8 0 7 0;
#X connect 8 1 17 0;
#X connect 8 2 26 0;
#X connect 9 0 10 1;
#X connect 10 0 11 0;
#X connect 11 0 121 0;
#X connect 12 0 15 0;
#X connect 13 0 3 0;
#X connect 14 0 6 1;
#X connect 15 0 121 1;
#X connect 16 0 121 0;
#X connect 17 0 9 0;
#X connect 18 0 20 0;
#X connect 19 0 18 0;
#X connect 21 0 22 0;
#X connect 22 0 23 0;
#X connect 23 0 24 0;
#X connect 24 0 25 0;
#X connect 26 0 27 0;
#X connect 27 0 11 1;
#X connect 27 0 14 0;
#X connect 28 0 67 0;
#X connect 29 0 66 0;
#X connect 30 0 29 0;
#X connect 31 0 32 0;
#X connect 32 0 66 0;
#X connect 33 0 34 0;
#X connect 34 0 66 0;
#X connect 35 0 36 0;
#X connect 36 0 66 0;
#X connect 37 0 38 0;
#X connect 38 0 66 0;
#X connect 39 0 40 0;
#X connect 40 0 66 0;
#X connect 41 0 42 0;
#X connect 42 0 66 0;
#X connect 43 0 44 0;
#X connect 44 0 66 0;
#X connect 45 0 46 0;
#X connect 46 0 66 0;
#X connect 47 0 48 0;
#X connect 48 0 66 0;
#X connect 49 0 50 0;
#X connect 50 0 66 0;
#X connect 51 0 52 0;
#X connect 52 0 66 0;
#X connect 53 0 54 0;
#X connect 54 0 66 0;
#X connect 55 0 67 0;
#X connect 56 0 69 0;
#X connect 57 0 69 1;
#X connect 58 0 69 2;
#X connect 59 0 69 3;
#X connect 60 0 73 0;
#X connect 61 0 73 1;
#X connect 62 0 63 0;
#X connect 63 0 66 0;
#X connect 64 0 65 0;
#X connect 65 0 67 0;
#X connect 68 0 66 0;
#X connect 69 0 68 0;
#X connect 70 0 69 4;
#X connect 71 0 69 5;
#X connect 72 0 66 0;
#X connect 73 0 72 0;
#X connect 74 0 73 2;
#X connect 75 0 77 0;
#X connect 76 0 77 0;
#X connect 77 0 106 0;
#X connect 77 0 121 1;
#X connect 77 1 98 0;
#X connect 78 0 79 0;
#X connect 79 0 76 0;
#X connect 80 0 79 1;
#X connect 81 0 88 0;
#X connect 82 0 88 0;
#X connect 88 0 83 0;
#X connect 88 0 94 0;
#X connect 88 0 93 0;
#X connect 88 0 84 0;
#X connect 88 0 95 0;
#X connect 88 0 85 0;
#X connect 88 0 90 0;
#X connect 88 0 91 0;
#X connect 88 0 87 0;
#X connect 88 0 92 0;
#X connect 88 0 96 0;
#X connect 88 0 97 0;
#X connect 89 0 88 0;
#X connect 99 0 26 1;
#X connect 100 0 27 1;
#X connect 104 0 106 1;
#X connect 105 0 106 0;
#X connect 107 0 108 0;
#X connect 108 0 109 0;
#X connect 109 0 110 0;
#X connect 109 1 114 3;
#X connect 110 0 114 0;
#X connect 111 0 112 0;
#X connect 112 0 113 0;
#X connect 113 0 115 0;
#X connect 113 1 115 1;
#X connect 114 0 115 2;
#X connect 116 0 117 0;
#X connect 117 0 118 0;
#X connect 117 1 119 0;
#X connect 118 0 120 0;
#X connect 119 0 118 1;
#X connect 120 0 17 0;
#X connect 122 0 123 0;
#X connect 123 0 121 2;
#X connect 124 0 123 0;
#X connect 125 0 123 0;
