#N canvas 542 60 505 302 10;
#N canvas 0 22 450 300 inspiration 0;
#X text 14 27 gaviotas vienen de lo lejos;
#X text 15 44 suena un trueno de repente;
#X text 17 65 gaviotas giran gritan;
#X text 19 82 rondando el centro;
#X text 22 105 empieza a llover a lo lejos;
#X text 24 120 y de cerca cae la lluvia;
#X text 27 141 rondando el centro;
#X text 29 155 gaviotas giran gritando;
#X text 33 177 se van \, ellas;
#X text 36 194 se queda su perfume;
#X text 41 210 algun dia las volvere a ver;
#X text 45 230 todavia las escucho;
#X text 51 246 rondando;
#X restore 19 19 pd inspiration;
#X obj 20 43 fd_windows 0 2051;
#X obj 180 121 vsl 15 128 0 127 0 0 vol vol-set vol 0 -9 0 10 -262144
-1 -1 10300 1;
#X obj 209 142 env~;
#X floatatom 209 163 5 0 0 0 - - -, f 5;
#N canvas 97 519 763 523 sounds2 0;
#X obj 230 347 env~;
#X floatatom 230 368 5 0 0 0 - - -, f 5;
#X obj 75 380 throw~ dacout-1;
#X obj 373 170 tabosc4~ 0-sin;
#X floatatom 433 138 5 0 0 0 - - -, f 5;
#X obj 175 223 +~;
#X floatatom 607 152 5 0 0 0 - - -, f 5;
#X obj 31 96 tabosc4~ 0-sin;
#X obj 98 262 tabosc4~ 0-sin;
#X obj 114 359 throw~ dacout-2;
#X floatatom 80 65 5 0 0 0 - - -, f 5;
#X obj 499 143 tabosc4~ 0-sin;
#X obj 387 194 *~;
#X obj 499 164 *~ 1;
#X floatatom 570 110 5 0 0 0 - - -, f 5;
#X floatatom 70 169 5 0 0 0 - - -, f 5;
#X symbolatom 70 210 10 0 0 0 - - -, f 10;
#X msg 70 230 set \$1;
#X floatatom 456 34 5 0 0 0 - - -, f 5;
#X symbolatom 456 75 10 0 0 0 - - -, f 10;
#X msg 456 95 set \$1;
#X floatatom 364 63 5 0 0 0 - - -, f 5;
#X symbolatom 364 104 10 0 0 0 - - -, f 10;
#X msg 364 124 set \$1;
#X floatatom 289 127 5 0 0 0 - - -, f 5;
#X obj 191 118 tabosc4~ 0-sin;
#X obj 191 139 *~ 1;
#X floatatom 263 84 5 0 0 0 - - -, f 5;
#X floatatom 191 26 5 0 0 0 - - -, f 5;
#X symbolatom 191 67 10 0 0 0 - - -, f 10;
#X msg 191 87 set \$1;
#X obj 179 167 *~;
#X floatatom 18 7 5 0 0 0 - - -, f 5;
#X symbolatom 18 48 10 0 0 0 - - -, f 10;
#X msg 18 68 set \$1;
#X obj 105 329 *~ 0.1;
#X msg 619 411 0;
#X floatatom 413 6 5 0 0 0 - - -, f 5;
#X floatatom 142 33 5 0 0 0 - - -, f 5;
#X floatatom 285 18 5 0 0 0 - - -, f 5;
#X floatatom 609 29 5 0 0 0 - - -, f 5;
#X obj 609 49 * 10;
#X obj 384 35 * 10;
#X obj 296 49 * 3;
#X obj 142 53 * 4;
#X obj 548 12 * 5;
#X floatatom 672 29 5 0 0 0 - - -, f 5;
#X obj 647 219 tgl 15 0 empty empty empty 17 7 0 10 -262144 -1 -1 0
1;
#X obj 647 239 switch~;
#X obj 70 189 fd_seltab 0;
#X obj 456 54 fd_seltab 0;
#X obj 364 83 fd_seltab 0;
#X obj 191 46 fd_seltab 0;
#X obj 18 27 fd_seltab 0;
#X connect 0 0 1 0;
#X connect 3 0 12 0;
#X connect 4 0 3 0;
#X connect 5 0 8 0;
#X connect 6 0 13 1;
#X connect 7 0 31 0;
#X connect 8 0 35 0;
#X connect 10 0 7 0;
#X connect 11 0 13 0;
#X connect 12 0 5 1;
#X connect 13 0 12 1;
#X connect 14 0 11 0;
#X connect 15 0 49 0;
#X connect 16 0 17 0;
#X connect 17 0 8 0;
#X connect 18 0 50 0;
#X connect 19 0 20 0;
#X connect 20 0 11 0;
#X connect 21 0 51 0;
#X connect 22 0 23 0;
#X connect 23 0 3 0;
#X connect 24 0 26 1;
#X connect 25 0 26 0;
#X connect 26 0 31 1;
#X connect 27 0 25 0;
#X connect 28 0 52 0;
#X connect 29 0 30 0;
#X connect 30 0 25 0;
#X connect 31 0 5 0;
#X connect 32 0 53 0;
#X connect 33 0 34 0;
#X connect 34 0 7 0;
#X connect 35 0 0 0;
#X connect 35 0 2 0;
#X connect 35 0 9 0;
#X connect 36 0 11 1;
#X connect 36 0 3 1;
#X connect 36 0 25 1;
#X connect 36 0 7 1;
#X connect 36 0 8 1;
#X connect 37 0 42 0;
#X connect 37 0 43 0;
#X connect 37 0 45 0;
#X connect 38 0 4 0;
#X connect 38 0 44 0;
#X connect 39 0 38 0;
#X connect 39 0 37 0;
#X connect 40 0 24 0;
#X connect 40 0 41 0;
#X connect 41 0 6 0;
#X connect 42 0 14 0;
#X connect 43 0 27 0;
#X connect 44 0 10 0;
#X connect 45 0 40 0;
#X connect 46 0 45 1;
#X connect 47 0 48 0;
#X connect 49 0 16 0;
#X connect 50 0 19 0;
#X connect 51 0 22 0;
#X connect 52 0 29 0;
#X connect 53 0 33 0;
#X restore 18 188 pd sounds2;
#N canvas 40 278 1231 497 controls 1;
#X obj 32 38 vsl 15 128 0 1 0 0 ambsound ambsound-set ambsound 0 -9
0 10 -262144 -1 -1 0 1;
#X obj 92 38 vsl 15 128 20 20000 1 0 ambhp ambhp-set ambhp 0 -9 0 10
-262144 -1 -1 976 1;
#X obj 150 38 vsl 15 128 20 20000 1 0 amblp amblp-set amblp 0 -9 0
10 -262144 -1 -1 6900 1;
#X obj 348 34 tgl 15 0 cicadas cicadas-set cicadas 17 7 0 10 -262144
-1 -1 0 1;
#X obj 483 27 vsl 15 128 1e-05 1 1 0 gaviotamp gaviotamp-set gaviotamp
0 -9 0 10 -262144 -1 -1 0 1;
#X obj 542 28 vsl 15 128 20 20000 1 0 gaviolp gaviolp-set gaviolp 0
-9 0 10 -262144 -1 -1 7603 1;
#X obj 599 28 vsl 15 128 20 20000 1 0 gaviohp gaviohp-set gaviohp 0
-9 0 10 -262144 -1 -1 8800 1;
#X obj 667 29 vsl 15 128 0 100 0 0 gaviofreq gaviofreq-set gaviofreq
0 -9 0 10 -262144 -1 -1 0 1;
#X obj 721 29 vsl 15 128 0 127 0 0 gaviobase gaviobase-set gaviobase
0 -9 0 10 -262144 -1 -1 7200 1;
#X obj 780 29 vsl 15 128 0 5 0 0 gaviospread gaviospread-set gaviospread
0 -9 0 10 -262144 -1 -1 889 1;
#N canvas 0 23 761 506 boid-ctrl 0;
#X msg 412 352 dump;
#X msg 89 101 neighbors \$1;
#X floatatom 89 86 5 0 4 0 - neighbors -, f 5;
#X floatatom 458 20 5 0 0 0 - maxspeed -, f 5;
#X msg 458 35 maxspeed \$1;
#X floatatom 475 56 5 0 0 0 - minspeed -, f 5;
#X msg 475 71 minspeed \$1;
#X floatatom 293 44 5 0 0 0 - center -, f 5;
#X msg 293 59 center \$1;
#X floatatom 312 87 5 0 0 0 - attract -, f 5;
#X msg 312 102 attract \$1;
#X floatatom 315 128 5 0 0 0 - match -, f 5;
#X msg 315 143 match \$1;
#X floatatom 228 70 5 0 0 0 - avoid -, f 5;
#X msg 228 85 avoid \$1;
#X floatatom 190 109 5 0 0 0 - repel -, f 5;
#X msg 190 124 repel \$1;
#X floatatom 113 147 5 0 0 0 - edgedist -, f 5;
#X msg 113 162 edgedist \$1;
#X floatatom 483 99 5 0 0 0 - speed -, f 5;
#X msg 483 114 speed \$1;
#X floatatom 486 135 5 0 0 0 - inertia -, f 5;
#X msg 486 150 inertia \$1;
#X floatatom 492 170 5 0 0 0 - accel -, f 5;
#X msg 492 185 accel \$1;
#X floatatom 498 208 5 0 0 0 - prefdist -, f 5;
#X msg 498 223 prefdist \$1;
#X msg 412 371 reset;
#X floatatom 151 317 5 0 0 0 - flyrect[0] -, f 5;
#X floatatom 190 317 5 0 0 0 - flyrect[1] -, f 5;
#X floatatom 229 317 5 0 0 0 - flyrect[2] -, f 5;
#X floatatom 268 317 5 0 0 0 - - -, f 5;
#X floatatom 63 47 5 0 0 0 - - -, f 5;
#X msg 63 62 number \$1;
#X floatatom 412 318 5 0 0 0 - - -, f 5;
#X msg 412 333 mode \$1;
#X obj 306 282 s boidParam;
#X obj 412 392 s boidParam;
#X msg 185 395 flyrect \$1 \$2 \$3 \$4 \$5 \$6;
#X obj 185 377 pack 0 0 0 0 0 0;
#X floatatom 307 317 5 0 0 0 - - -, f 5;
#X floatatom 346 317 5 0 0 0 - - -, f 5;
#X obj 185 416 s boidParam;
#X connect 0 0 37 0;
#X connect 1 0 36 0;
#X connect 2 0 1 0;
#X connect 3 0 4 0;
#X connect 4 0 36 0;
#X connect 5 0 6 0;
#X connect 6 0 36 0;
#X connect 7 0 8 0;
#X connect 8 0 36 0;
#X connect 9 0 10 0;
#X connect 10 0 36 0;
#X connect 11 0 12 0;
#X connect 12 0 36 0;
#X connect 13 0 14 0;
#X connect 14 0 36 0;
#X connect 15 0 16 0;
#X connect 16 0 36 0;
#X connect 17 0 18 0;
#X connect 18 0 36 0;
#X connect 19 0 20 0;
#X connect 20 0 36 0;
#X connect 21 0 22 0;
#X connect 22 0 36 0;
#X connect 23 0 24 0;
#X connect 24 0 36 0;
#X connect 25 0 26 0;
#X connect 26 0 36 0;
#X connect 27 0 37 0;
#X connect 28 0 39 0;
#X connect 29 0 39 1;
#X connect 30 0 39 2;
#X connect 31 0 39 3;
#X connect 32 0 33 0;
#X connect 33 0 36 0;
#X connect 34 0 35 0;
#X connect 35 0 37 0;
#X connect 38 0 42 0;
#X connect 39 0 38 0;
#X connect 40 0 39 4;
#X connect 41 0 39 5;
#X restore 908 167 pd boid-ctrl;
#N canvas 623 96 399 413 boid-pref 0;
#X obj 68 187 text define bpref;
#X obj 76 299 text get bpref;
#X msg 81 161 read bpref-0.txt;
#X obj 76 276 counter;
#X msg 76 252 0;
#X obj 157 319 sel 0 1 2;
#X obj 76 325 route bang;
#X obj 133 368 s boidParam;
#X obj 133 347 list trim;
#X msg 68 137 read bpref-1.txt;
#X obj 49 37 loadbang;
#X obj 42 19 bng 15 250 50 0 empty empty empty 17 7 0 10 -262144 -1
-1;
#X obj 88 80 define_loudspeakers 2 0 90 180 270;
#X obj 88 101 s gaviovbap;
#X obj 49 58 t b b b;
#X obj 49 227 t b b;
#X obj 151 256 bng 15 250 50 0 empty empty empty 17 7 0 10 -262144
-1 -1;
#X connect 1 0 6 0;
#X connect 1 1 5 0;
#X connect 2 0 0 0;
#X connect 3 0 1 0;
#X connect 4 0 3 0;
#X connect 5 0 16 0;
#X connect 5 2 4 0;
#X connect 6 1 8 0;
#X connect 8 0 7 0;
#X connect 9 0 0 0;
#X connect 10 0 14 0;
#X connect 11 0 14 0;
#X connect 12 0 13 0;
#X connect 14 0 15 0;
#X connect 14 1 9 0;
#X connect 14 2 12 0;
#X connect 15 0 3 0;
#X connect 15 1 4 0;
#X connect 16 0 3 0;
#X restore 907 185 pd boid-pref;
#X obj 906 205 tgl 15 0 gavioplot gavioplot-set gavioplot 17 7 0 10
-262144 -1 -1 0 1;
#X obj 928 11 tgl 15 0 gavioboid gavioboid-set gavioboid 17 7 0 10
-262144 -1 -1 0 1;
#X msg 52 397 \; ambsound-set 0 \;;
#X obj 194 39 vsl 15 128 0 100 0 0 water water-set water 0 -9 0 10
-262144 -1 -1 0 1;
#X obj 422 34 tgl 15 0 clouds clouds-set clouds 17 7 0 10 -262144 -1
-1 0 1;
#X msg 201 388 \; water-set 0 \;;
#X msg 477 200 \; gaviotamp-set 0 \; gaviofreq-set 0 \;;
#X msg 418 390 \; clouds-set 0 \;;
#X msg 300 388 \; cicadas-set 0 \;;
#X obj 215 47 vsl 15 100 1 20000 1 0 grainlp grainlp-set grainlp 0
-9 0 10 -262144 -1 -1 4604 1;
#X obj 235 45 _tabtab graintab;
#X msg 204 278 \; water-set 0.01 \; grainlp-set 100 \; graintab-set
2 1;
#X obj 29 184 nbx 5 14 -1e+37 1e+37 0 0 empty ambsound ambsound 0 -8
0 10 -262144 -1 -1 0 256;
#X obj 89 184 nbx 5 14 -1e+37 1e+37 0 0 empty ambhp ambhp 0 -8 0 10
-262144 -1 -1 34 256;
#X obj 149 184 nbx 5 14 -1e+37 1e+37 0 0 empty amblp amblp 0 -8 0 10
-262144 -1 -1 853 256;
#X obj 1108 33 _tabtab crictab;
#X obj 1082 29 vsl 15 128 0 40000 0 0 cricfreq cricfreq-set cricfreq
0 -9 0 10 -262144 -1 -1 0 1;
#X msg 1050 384 \; cricfreq-set 0 \;;
#X obj 901 31 _tabtab gaviotab;
#X obj 482 174 nbx 5 14 -1e+37 1e+37 0 0 empty gaviotamp gaviotamp
0 -8 0 10 -262144 -1 -1 0 256;
#X obj 542 174 nbx 5 14 -1e+37 1e+37 0 0 empty gaviolp gaviolp 0 -8
0 10 -262144 -1 -1 1250 256;
#X obj 602 174 nbx 5 14 -1e+37 1e+37 0 0 empty gaviohp gaviohp 0 -8
0 10 -262144 -1 -1 2397 256;
#X obj 662 174 nbx 5 14 -1e+37 1e+37 0 0 empty gaviofreq gaviofreq
0 -8 0 10 -262144 -1 -1 0 256;
#X obj 721 174 nbx 5 14 -1e+37 1e+37 0 0 empty gaviobase gaviobase
0 -8 0 10 -262144 -1 -1 72 256;
#X obj 781 174 nbx 5 14 -1e+37 1e+37 0 0 empty gaviospread gaviospread
0 -8 0 10 -262144 -1 -1 0.35 256;
#X obj 1023 29 vsl 15 128 0 0.2 0 0 cricamp cricamp-set cricamp 0 -9
0 10 -262144 -1 -1 1700 1;
#X obj 1135 15 bng 15 250 50 0 cricrand cricrand-set cricrand 17 7
0 10 -262144 -1 -1;
#X obj 1021 174 nbx 5 14 -1e+37 1e+37 0 0 empty cricamp cricamp 0 -8
0 10 -262144 -1 -1 0.0267717 256;
#X obj 1081 174 nbx 5 14 -1e+37 1e+37 0 0 empty cricfreq cricfreq 0
-8 0 10 -262144 -1 -1 0 256;
#X msg 42 286 \; ambsound-set 0 \; amblp-set 1800 \; ambhp-set 600
\;;
#X msg 42 340 \; ambsound-set 0 \; ambhp-set 34 \; amblp-set 853 \;
;
#X msg 1055 319 \; cricrand-set bang \; cricamp-set 0 \; cricfreq-set
3000 \; crictab-set 2 2 \;;
#X msg 1058 254 \; cricrand-set bang \; cricamp-set 0 \; cricfreq-set
10700 \; crictab-set 0 0 \;;
#X obj 848 29 vsl 15 128 0.01 20000 1 0 gaviolpmax gaviolpmax-set gaviolpmax
0 -9 0 10 -262144 -1 -1 4031 1;
#X obj 849 174 nbx 5 14 -1e+37 1e+37 0 0 empty gaviolpmax gaviolpmax
0 -8 0 10 -262144 -1 -1 1 256;
#X msg 562 270 \; gaviotamp-set 0 \; gaviolp-set 2500 \; gaviohp-set
18000 \; gaviospread-set 1 \; gaviobase-set 100 \; gaviolpmax-set 2.5
\; gaviofreq-set 97 \; gavioboid-set 1 \;;
#X msg 712 270 \; gaviotamp-set 0 \; gaviolp-set 1250 \; gaviohp-set
2397 \; gaviofreq-set 97 \; gaviobase-set 72 \; gaviospread-set 0.35
\; gaviolpmax-set 1 \; gaviotab-set 5 3 \; gavioboid-set 1 \;;
#N canvas 0 23 450 300 craz 0;
#X msg 57 40 \; gaviolp-set 7115 \; gaviohp-set 96 \; gaviofreq-set
15 \; gaviobase-set 31 \; gaviospread-set 3 \; gaviolpmax-set 4040
\; gaviotab-set 7 10 \; gavioboid-set 1 \;;
#X restore 889 306 pd craz;
#X msg 867 331 \; gaviotamp-set 0 \; gaviolp-set 9860 \; gaviohp-set
1119 \; gaviofreq-set 88 \; gaviobase-set 93 \; gaviospread-set 5 \;
gaviolpmax-set 461 \; gaviotab-set 7 13 \; gavioboid-set 1 \;;
#X restore 179 71 pd controls;
#N canvas 0 23 470 428 ambsound 0;
#X obj 53 15 noise~;
#X obj 47 190 hip~ 600;
#X obj 47 211 hip~ 600;
#X obj 45 148 lop~ 1800;
#X obj 46 167 lop~ 1800;
#X obj 45 293 delwrite~ lrdel 100;
#X obj 189 235 *~ 0.5;
#X obj 189 256 +~ 0.5;
#X obj 187 299 delread4~ lrdel;
#X obj 42 236 *~ 0.02;
#X obj 189 214 osc~ 0.01;
#X obj 176 18 r ambsound;
#X obj 226 97 pack f 10;
#X obj 226 118 line~;
#X obj 58 115 *~;
#X obj 109 188 r ambhp;
#X obj 111 144 r amblp;
#X floatatom 119 163 0 0 0 0 - - -;
#X floatatom 109 209 0 0 0 0 - - -;
#X obj 191 277 *~ 100;
#X obj 29 267 *~ 0.8;
#X obj 105 72 fd_switch;
#X obj 154 94 switch~;
#X obj 60 88 *~;
#X obj 176 39 t f f;
#X obj 114 37 > 0;
#X obj 49 327 throw~ dacout-1;
#X obj 181 324 throw~ dacout-2;
#X obj 66 347 throw~ dacout-3;
#X obj 194 345 throw~ dacout-4;
#X connect 0 0 23 0;
#X connect 1 0 2 0;
#X connect 2 0 9 0;
#X connect 3 0 4 0;
#X connect 4 0 1 0;
#X connect 6 0 7 0;
#X connect 7 0 19 0;
#X connect 8 0 27 0;
#X connect 8 0 29 0;
#X connect 9 0 20 0;
#X connect 10 0 6 0;
#X connect 11 0 24 0;
#X connect 12 0 13 0;
#X connect 13 0 14 1;
#X connect 14 0 3 0;
#X connect 15 0 1 1;
#X connect 15 0 2 1;
#X connect 15 0 18 0;
#X connect 16 0 3 1;
#X connect 16 0 4 1;
#X connect 16 0 17 0;
#X connect 19 0 8 0;
#X connect 20 0 5 0;
#X connect 20 0 26 0;
#X connect 20 0 28 0;
#X connect 21 0 23 1;
#X connect 21 1 22 0;
#X connect 23 0 14 0;
#X connect 24 0 25 0;
#X connect 24 1 12 0;
#X connect 25 0 21 0;
#X restore 19 98 pd ambsound;
#X obj 19 121 clone _cicada 20;
#N canvas 690 285 590 397 gavio 0;
#X obj 41 185 metro 10;
#X obj 42 229 random 20;
#X obj 246 153 r boidParam;
#X obj 216 53 metro 100;
#X obj 212 203 boids/boids3d 20 0;
#X obj 366 136 lorenz;
#X obj 366 157 unpack f f f;
#X obj 409 202 * 100;
#X obj 409 223 + 100;
#X obj 459 203 * 100;
#X obj 459 224 + 100;
#X msg 373 97 100;
#X obj 373 118 until;
#X floatatom 513 172 5 0 0 0 - - -, f 5;
#X floatatom 515 194 5 0 0 0 - - -, f 5;
#X obj 366 178 fd_norm;
#X obj 416 179 fd_norm;
#N canvas 820 230 668 437 set 0;
#X obj 32 24 inlet;
#X obj 32 45 t a a;
#X obj 111 27 route number;
#X obj 208 29 route neighbors;
#X obj 324 28 route maxspeed;
#X obj 419 29 route minspeed;
#X obj 518 28 route center;
#X obj 119 110 route attract;
#X obj 218 110 route match;
#X obj 310 110 route avoid;
#X obj 401 110 route repel;
#X obj 505 110 route edgedist;
#X obj 133 200 route speed;
#X obj 226 202 route inertia;
#X obj 319 199 route accel;
#X obj 401 199 route prefdist;
#X obj 505 197 route flyrect;
#X obj 490 341 route attractpt;
#X obj 32 66 outlet;
#X obj 94 58 text set bpref 0 1;
#X obj 208 50 text set bpref 1 1;
#X obj 324 49 text set bpref 2 1;
#X obj 419 50 text set bpref 3 1;
#X obj 519 49 text set bpref 4 1;
#X obj 119 131 text set bpref 5 1;
#X obj 210 147 text set bpref 6 1;
#X obj 305 144 text set bpref 7 1;
#X obj 401 131 text set bpref 8 1;
#X obj 505 130 text set bpref 9 1;
#X obj 125 243 text set bpref 10 1;
#X obj 225 247 text set bpref 11 1;
#X obj 324 256 text set bpref 12 1;
#X obj 384 231 text set bpref 13 1;
#X obj 505 218 text set bpref 14 1;
#X obj 490 362 text set bpref 15 1;
#X connect 0 0 1 0;
#X connect 1 0 18 0;
#X connect 1 1 2 0;
#X connect 2 0 19 0;
#X connect 2 1 3 0;
#X connect 3 0 20 0;
#X connect 3 1 4 0;
#X connect 4 0 21 0;
#X connect 4 1 5 0;
#X connect 5 0 22 0;
#X connect 5 1 6 0;
#X connect 6 0 23 0;
#X connect 6 1 7 0;
#X connect 7 0 24 0;
#X connect 7 1 8 0;
#X connect 8 0 25 0;
#X connect 8 1 9 0;
#X connect 9 0 26 0;
#X connect 9 1 10 0;
#X connect 10 0 27 0;
#X connect 10 1 11 0;
#X connect 11 0 28 0;
#X connect 11 1 12 0;
#X connect 12 0 29 0;
#X connect 12 1 13 0;
#X connect 13 0 30 0;
#X connect 13 1 14 0;
#X connect 14 0 31 0;
#X connect 14 1 15 0;
#X connect 15 0 32 0;
#X connect 15 1 16 0;
#X connect 16 0 33 0;
#X connect 17 0 34 0;
#X restore 243 174 pd set preset;
#X msg 248 110 dump;
#X obj 314 226 s boidParam;
#X msg 412 262 attractpt \$1 \$2 \$3;
#X obj 411 245 pack 0 0 0;
#X obj 412 280 s boidParam;
#X obj 164 262 t a a;
#X obj 375 72 loadbang;
#X obj 40 29 r gaviofreq;
#X obj 71 75 -;
#X msg 71 54 100 \$1;
#X floatatom 71 96 5 0 0 0 - - -, f 5;
#X obj 40 50 sel;
#X msg 40 71 0;
#X obj 41 120 t f f;
#X obj 41 141 > 0;
#X obj 41 162 change;
#X obj 42 208 t b b;
#X obj 216 74 t b b;
#X obj 215 27 r gavioboid;
#N canvas 0 22 415 421 gavioplot 0;
#X msg 140 160 all bang;
#X msg 215 175 traverse pd-plot \, bang;
#X obj 215 196 pointer;
#X obj 215 217 t b p;
#X msg 215 238 50 50 900;
#X obj 81 218 r boidParam;
#X obj 91 309 route attractpt;
#X obj 91 330 unpack;
#X obj 215 259 append birds x y col;
#X obj 100 359 set birds x y;
#X obj 47 190 clone _setter 20;
#X obj 86 122 spigot;
#X obj 43 125 spigot;
#X obj 82 266 spigot;
#X text 136 50 plot;
#X obj 115 237 r gavioplot;
#X obj 116 101 r gavioplot;
#X obj 78 77 r gavioplot;
#X obj 198 25 r gavioplot;
#X obj 193 114 sel 1;
#X obj 22 11 inlet;
#X obj 75 10 inlet;
#N canvas 659 79 369 153 structur 0;
#X obj 22 18 struct birds float x float y float col float num;
#X msg 221 87 \; pd-plot clear;
#X obj 22 47 drawcurve col 2 0 0 0 5 5 5 5 0 0 0;
#X obj 22 67 drawnumber num 10 0;
#X restore 299 10 pd structur;
#N canvas 892 61 388 309 plot 0;
#X restore 299 30 pd plot;
#X obj 192 134 t b b;
#X obj 198 46 t f f b;
#X msg 252 73 clear;
#X msg 239 96 vis \$1;
#X obj 269 131 s pd-plot;
#X connect 0 0 10 2;
#X connect 1 0 2 0;
#X connect 2 0 3 0;
#X connect 3 0 4 0;
#X connect 3 1 8 3;
#X connect 4 0 8 0;
#X connect 5 0 13 0;
#X connect 6 0 7 0;
#X connect 7 0 9 0;
#X connect 7 1 9 1;
#X connect 8 0 9 2;
#X connect 11 0 10 1;
#X connect 12 0 10 0;
#X connect 13 0 6 0;
#X connect 15 0 13 1;
#X connect 16 0 11 1;
#X connect 17 0 12 1;
#X connect 18 0 25 0;
#X connect 19 0 24 0;
#X connect 20 0 11 0;
#X connect 21 0 12 0;
#X connect 24 0 0 0;
#X connect 24 1 1 0;
#X connect 25 0 27 0;
#X connect 25 1 19 0;
#X connect 25 2 26 0;
#X connect 26 0 28 0;
#X connect 27 0 28 0;
#X restore 118 334 pd gavioplot;
#X obj 84 207 crand 100 500;
#X obj 56 255 pack;
#X obj 113 87 s gavioboid-set;
#X obj 237 269 r gaviotab;
#X obj 237 290 list prepend all;
#X obj 237 311 list trim;
#X obj 61 285 clone _gaviota 20 4;
#X connect 0 0 34 0;
#X connect 1 0 39 0;
#X connect 2 0 17 0;
#X connect 3 0 35 0;
#X connect 4 0 23 0;
#X connect 4 1 19 0;
#X connect 5 0 6 0;
#X connect 6 0 15 0;
#X connect 6 1 16 0;
#X connect 7 0 8 0;
#X connect 8 0 21 0;
#X connect 9 0 10 0;
#X connect 10 0 21 1;
#X connect 11 0 12 0;
#X connect 12 0 5 0;
#X connect 13 0 7 1;
#X connect 13 0 9 1;
#X connect 14 0 8 1;
#X connect 14 0 10 1;
#X connect 15 1 7 0;
#X connect 16 1 9 0;
#X connect 17 0 4 0;
#X connect 18 0 4 0;
#X connect 20 0 22 0;
#X connect 21 0 20 0;
#X connect 23 0 44 1;
#X connect 23 1 37 1;
#X connect 24 0 11 0;
#X connect 25 0 29 0;
#X connect 26 0 28 0;
#X connect 26 0 31 0;
#X connect 27 0 26 0;
#X connect 29 0 30 0;
#X connect 29 1 27 0;
#X connect 30 0 31 0;
#X connect 30 0 40 0;
#X connect 31 0 32 0;
#X connect 31 1 0 1;
#X connect 32 0 33 0;
#X connect 33 0 0 0;
#X connect 34 0 1 0;
#X connect 34 1 38 0;
#X connect 35 0 4 0;
#X connect 35 1 5 0;
#X connect 36 0 3 0;
#X connect 38 0 39 1;
#X connect 39 0 44 0;
#X connect 41 0 42 0;
#X connect 42 0 43 0;
#X connect 43 0 44 2;
#X connect 44 0 37 0;
#X restore 19 75 pd gavio;
#N canvas 88 23 493 389 water 0;
#X obj 88 166 t b b b;
#X obj 33 198 random 100;
#X obj 80 244 pack;
#X obj 101 219 mtof;
#X obj 80 273 list;
#X obj 102 197 crand 20 110;
#X obj 190 196 crand 60 100;
#X obj 121 68 -;
#X msg 121 47 100 \$1;
#X floatatom 121 89 5 0 0 0 - - -, f 5;
#X obj 90 43 sel;
#X msg 90 64 0;
#X obj 84 86 t f f;
#X obj 84 107 > 0;
#X obj 84 128 change;
#X obj 84 146 metro 15;
#X obj 90 22 r water;
#X msg 267 279 all 0-noi 0-poi;
#X obj 80 294 clone _grain 100;
#X obj 203 239 r graintab;
#X obj 203 260 list prepend all;
#X obj 203 281 list trim;
#X connect 0 0 1 0;
#X connect 0 1 5 0;
#X connect 0 2 6 0;
#X connect 1 0 2 0;
#X connect 2 0 4 0;
#X connect 3 0 2 1;
#X connect 4 0 18 0;
#X connect 5 0 3 0;
#X connect 6 0 4 1;
#X connect 7 0 9 0;
#X connect 7 0 12 0;
#X connect 8 0 7 0;
#X connect 10 0 11 0;
#X connect 10 1 8 0;
#X connect 11 0 12 0;
#X connect 12 0 13 0;
#X connect 12 1 15 1;
#X connect 13 0 14 0;
#X connect 14 0 15 0;
#X connect 15 0 0 0;
#X connect 16 0 10 0;
#X connect 17 0 18 1;
#X connect 19 0 20 0;
#X connect 20 0 21 0;
#X connect 21 0 18 1;
#X restore 19 144 pd water;
#N canvas 558 398 505 328 clouds 0;
#X obj 175 65 switch~;
#X obj 54 64 noise~;
#X obj 69 168 bp~ 65 2;
#X obj 130 157 osc~ 0.1;
#X obj 130 178 *~ 0.5;
#X obj 130 199 +~ 0.5;
#X obj 69 230 clone _tabamp 4;
#X obj 284 140 *~ 0.5;
#X obj 284 161 +~ 0.5;
#X obj 224 239 clone _tabamp 4;
#X msg 258 68 all set 0-arc \, all bang;
#X obj 284 182 *~ 0.4;
#X obj 206 188 bp~ 286 3;
#X obj 283 119 osc~ 0.13;
#X obj 259 45 loadbang;
#X obj 127 21 r clouds;
#X obj 129 43 fd_switch;
#X obj 64 116 *~;
#X connect 1 0 17 0;
#X connect 2 0 6 0;
#X connect 3 0 4 0;
#X connect 4 0 5 0;
#X connect 5 0 6 1;
#X connect 7 0 8 0;
#X connect 8 0 11 0;
#X connect 10 0 9 2;
#X connect 10 0 6 2;
#X connect 11 0 9 1;
#X connect 12 0 9 0;
#X connect 13 0 7 0;
#X connect 14 0 10 0;
#X connect 15 0 16 0;
#X connect 16 0 17 1;
#X connect 16 1 0 0;
#X connect 17 0 2 0;
#X connect 17 0 12 0;
#X restore 19 165 pd clouds;
#X obj 209 121 clone -s 1 _dacout 4 vol;
#N canvas 0 23 450 300 maindac 0;
#X obj 30 28 catch~ maindac-1;
#X obj 30 48 dac~ 8;
#X obj 164 27 catch~ maindac-2;
#X obj 29 88 catch~ maindac-3;
#X obj 164 48 dac~ 2;
#X obj 29 108 dac~ 4;
#X obj 168 109 dac~ 6;
#X obj 168 89 catch~ maindac-4;
#X connect 0 0 1 0;
#X connect 2 0 4 0;
#X connect 3 0 5 0;
#X connect 7 0 6 0;
#X restore 305 149 pd maindac 12to4;
#N canvas 0 23 450 300 teste 0;
#X obj 43 31 tgl 15 0 empty empty empty 17 7 0 10 -262144 -1 -1 0 1
;
#X obj 43 72 counter;
#X obj 43 93 mod 4;
#X obj 43 114 + 1;
#X obj 43 135 t b f;
#X msg 43 156 1 \, 0 0 1;
#X obj 43 177 vline~;
#X obj 43 261 throw~;
#X msg 169 159 set dacout-\$1;
#X obj 199 40 switch~;
#X obj 179 91 loadbang;
#X floatatom 125 56 5 0 0 0 - - -, f 5;
#X obj 44 51 metro 500;
#X obj 43 198 lop~ 10000;
#X obj 43 219 hip~ 8000;
#X obj 43 240 hip~ 8000;
#X connect 0 0 9 0;
#X connect 0 0 12 0;
#X connect 1 0 2 0;
#X connect 2 0 3 0;
#X connect 3 0 4 0;
#X connect 4 0 5 0;
#X connect 4 1 8 0;
#X connect 5 0 6 0;
#X connect 6 0 13 0;
#X connect 8 0 7 0;
#X connect 10 0 1 0;
#X connect 12 0 1 0;
#X connect 13 0 14 0;
#X connect 14 0 15 0;
#X connect 15 0 7 0;
#X restore 20 208 pd teste;
#N canvas 70 251 450 300 cricket 0;
#X msg 23 116 all \$1;
#X msg 23 34 1000;
#X obj 127 147 pack;
#X obj 162 155 crand 4000 6000;
#X obj 172 175 crand 44 100;
#X obj 182 195 crand 240 1000;
#X obj 127 126 t f b b b;
#X obj 127 168 list;
#X obj 127 189 list;
#X obj 127 105 fd_iterate;
#X msg 128 72 20;
#X obj 191 223 r crictab;
#X obj 191 244 list prepend all;
#X obj 191 265 list trim;
#X obj 129 13 loadbang;
#X msg 45 85 300;
#X msg 50 57 5000;
#X msg 56 34 40000;
#X msg 303 237 \; crictab-set 4 5;
#X msg 129 34 bang \; crictab-set 2 2;
#X obj 18 8 r cricfreq;
#X obj 73 258 clone _cricket 20;
#X obj 163 70 r cricrand;
#X connect 0 0 21 0;
#X connect 1 0 0 0;
#X connect 2 0 7 0;
#X connect 3 0 2 1;
#X connect 4 0 7 1;
#X connect 5 0 8 1;
#X connect 6 0 2 0;
#X connect 6 1 3 0;
#X connect 6 2 4 0;
#X connect 6 3 5 0;
#X connect 7 0 8 0;
#X connect 8 0 21 1;
#X connect 9 0 6 0;
#X connect 10 0 9 0;
#X connect 11 0 12 0;
#X connect 12 0 13 0;
#X connect 13 0 21 2;
#X connect 14 0 19 0;
#X connect 15 0 0 0;
#X connect 16 0 0 0;
#X connect 17 0 0 0;
#X connect 19 0 10 0;
#X connect 20 0 0 0;
#X connect 22 0 10 0;
#X restore 24 231 pd cricket;
#X connect 3 0 4 0;
#X connect 12 0 3 0;
