#N struct birds float x float y float col float num;
#N canvas 540 300 1236 852 10;
#N canvas 0 22 450 300 inspiration 0;
#X text 14 27 gaviotas vienen de lo lejos;
#X text 15 44 suena un trueno de repente;
#X text 17 65 gaviotas giran gritan;
#X text 19 82 rondando el centro;
#X text 22 105 empieza a llover a lo lejos;
#X text 24 120 y de cerca cae la lluvia;
#X text 27 141 rondando el centro;
#X text 29 155 gaviotas giran gritando;
#X text 33 177 se van \, ellas;
#X text 36 194 se queda su perfume;
#X text 41 210 algun dia las volvere a ver;
#X text 45 230 todavia las escucho;
#X text 51 246 rondando;
#X restore 18 17 pd inspiration;
#X obj 17 41 fd_windows 0 2051;
#X obj 371 140 vsl 15 128 0 127 0 0 vol vol-set vol 0 -9 0 10 -262144
-1 -1 10100 1;
#X obj 281 115 env~;
#X floatatom 281 136 5 0 0 0 - - -, f 5;
#X obj 38 100 tgl 15 0 empty empty empty 17 7 0 10 -262144 -1 -1 0
1;
#X obj 39 119 metro 10;
#X obj 39 161 random 20;
#X obj 39 140 t b b b;
#X obj 100 178 mtof;
#X obj 39 182 pack;
#X obj 39 203 list;
#X floatatom 161 195 5 0 0 0 - - -, f 5;
#X obj 281 94 clone -s 1 fd_dacout 4 vol;
#X floatatom 100 90 5 0 0 0 - - -, f 5;
#X msg 161 215 all \$1 0;
#X msg 202 257 16 277.183 959;
#X obj 100 157 crand 66 68;
#X obj 182 44 define_loudspeakers 2 0 90 180 270;
#X msg 182 24 bang;
#X obj 182 65 s vbap;
#X msg 306 167 360;
#X obj 306 188 / 3;
#X floatatom 306 209 5 0 0 0 - - -, f 5;
#X obj 306 229 * 2;
#X floatatom 306 250 5 0 0 0 - - -, f 5;
#X obj 172 141 random 500;
#X obj 172 162 + 100;
#X msg 502 417 dump;
#X msg 759 71 neighbors \$1;
#X floatatom 759 56 5 0 4 0 - neighbors -, f 5;
#X floatatom 760 89 5 0 0 0 - maxspeed -, f 5;
#X msg 760 104 maxspeed \$1;
#X floatatom 759 126 5 0 0 0 - minspeed -, f 5;
#X msg 759 141 minspeed \$1;
#X floatatom 771 161 5 0 0 0 - center -, f 5;
#X msg 771 176 center \$1;
#X floatatom 808 203 5 0 0 0 - attract -, f 5;
#X msg 808 218 attract \$1;
#X floatatom 753 231 5 0 0 0 - match -, f 5;
#X msg 753 246 match \$1;
#X floatatom 711 263 5 0 0 0 - avoid -, f 5;
#X msg 711 278 avoid \$1;
#X floatatom 673 302 5 0 0 0 - repel -, f 5;
#X msg 673 317 repel \$1;
#X floatatom 644 348 5 0 0 0 - edgedist -, f 5;
#X msg 644 363 edgedist \$1;
#X floatatom 808 360 5 0 0 0 - speed -, f 5;
#X msg 808 375 speed \$1;
#X floatatom 811 396 5 0 0 0 - inertia -, f 5;
#X msg 811 411 inertia \$1;
#X floatatom 817 431 5 0 0 0 - accel -, f 5;
#X msg 817 446 accel \$1;
#X floatatom 823 469 5 0 0 0 - prefdist -, f 5;
#X msg 823 484 prefdist \$1;
#X msg 502 436 reset;
#X floatatom 754 514 5 0 0 0 - flyrect[0] -, f 5;
#X floatatom 793 514 5 0 0 0 - flyrect[1] -, f 5;
#X floatatom 832 514 5 0 0 0 - flyrect[2] -, f 5;
#X floatatom 871 514 5 0 0 0 - - -, f 5;
#X floatatom 753 573 5 0 0 0 - - -, f 5;
#X floatatom 793 573 5 0 0 0 - - -, f 5;
#X floatatom 753 21 5 0 0 0 - - -, f 5;
#X msg 753 36 number \$1;
#X floatatom 502 383 5 0 0 0 - - -, f 5;
#X msg 502 398 mode \$1;
#X obj 753 634 s boidParam;
#X obj 502 457 s boidParam;
#X msg 753 550 flyrect \$1 \$2 \$3 \$4 \$5 \$6;
#X obj 753 532 pack 0 0 0 0 0 0;
#X floatatom 910 514 5 0 0 0 - - -, f 5;
#X floatatom 949 514 5 0 0 0 - - -, f 5;
#X msg 753 610 attractpt \$1 \$2 \$3;
#X obj 753 590 pack 0 0 0;
#X floatatom 832 573 5 0 0 0 - - -, f 5;
#X obj 292 321 r boidParam;
#X obj 266 336 bng 15 250 50 0 empty empty empty 0 -6 0 8 -262144 -1
-1;
#X obj 262 288 tgl 15 0 empty empty empty 17 7 0 10 -262144 -1 -1 0
1;
#X obj 262 309 metro 100;
#X floatatom 322 279 5 0 0 0 - - -, f 5;
#X obj 1018 30 loadbang;
#X obj 1078 30 r reset;
#X msg 999 87 \; neighbors 4;
#X msg 999 177 \; center 1;
#X msg 999 237 \; match 1;
#X msg 999 327 \; edgedist 1;
#X msg 999 357 \; speed 3;
#X obj 1000 58 b;
#X obj 1001 30 bng 15 250 50 0 empty empty empty 0 -6 0 8 -262144 -1
-1;
#X msg 999 267 \; avoid 2;
#X msg 999 297 \; repel 2;
#X msg 999 387 \; inertia 8;
#X msg 999 147 \; minspeed 1;
#X msg 999 117 \; maxspeed 3;
#X msg 999 207 \; attract 3;
#X msg 999 417 \; accel 2;
#X floatatom 220 106 5 0 0 0 - - -, f 5;
#X floatatom 210 161 5 0 0 0 - - -, f 5;
#N canvas 659 79 962 487 structur 0;
#X obj 22 18 struct birds float x float y float col float num;
#X obj 33 71 drawnumber num;
#X obj 33 51 adrawcurve col 2 0 0 0 10 10 10 10 0 0 0;
#X restore 61 384 pd structur;
#N canvas 60 232 626 552 plot 1;
#X scalar birds 25 8 900 0 \;;
#X scalar birds -0.0896435 -0.159095 29 -3785 \;;
#X scalar birds -0.321947 -0.0948637 28 -2674.57 \;;
#X scalar birds 0.0109457 -0.335406 27 4476.92 \;;
#X scalar birds -0.450081 0.230693 26 -1579.9 \;;
#X scalar birds 0.128867 0.296721 25 590.003 \;;
#X scalar birds 0.0282581 0.0342112 24 994.159 \;;
#X scalar birds -0.466171 -0.0586051 23 -2442.03 \;;
#X scalar birds -0.25345 -0.203658 22 -3236.68 \;;
#X scalar birds -0.057434 0.096676 21 -771.927 \;;
#X scalar birds -0.279842 0.108393 20 -1729.81 \;;
#X scalar birds 0.0305769 -0.0924786 19 4064.07 \;;
#X scalar birds -0.388339 -0.348933 18 -3316.03 \;;
#X scalar birds -0.00202785 0.224209 17 -13.0237 \;;
#X scalar birds -0.0924251 0.263903 16 -485.098 \;;
#X scalar birds -0.2959 -0.211811 15 -3156.57 \;;
#X scalar birds -0.497494 0.221423 14 -1658.94 \;;
#X scalar birds 0.286587 0.219462 13 1320.87 \;;
#X scalar birds -0.0904422 0.187063 12 -648.501 \;;
#X scalar birds 0.0437938 0.169718 11 363.644 \;;
#X scalar birds 0.224708 -0.0753303 10 2727.73 \;;
#X restore 61 404 pd plot;
#X msg 335 491 \; pd-plot clear;
#X msg 305 457 all bang;
#X msg 168 482 0 10 10;
#X msg 446 545 traverse pd-plot \, bang;
#X obj 446 566 pointer;
#X obj 446 587 t b p;
#X msg 446 608 50 50 900;
#X obj 595 642 r boidParam;
#X obj 595 663 route attractpt;
#X obj 595 684 unpack;
#X obj 446 629 append birds x y col;
#X obj 570 728 set birds x y;
#X floatatom 502 132 5 0 0 0 - - -, f 5;
#X obj 502 152 t f f;
#X obj 502 173 pack;
#X obj 542 177 + 2;
#X msg 502 194 set \$1 \$2;
#X msg 464 295 all 0-gau 0-exp;
#X obj 492 324 t a;
#X msg 466 271 all 0-sin 0-cau;
#X msg 473 243 all 0-tri 0-poi;
#X obj 266 364 boids/boids3d 20 0;
#X msg 999 447 \; prefdist 1.5 \; number 20;
#X obj 953 596 tgl 15 0 empty empty empty 17 7 0 10 -262144 -1 -1 0
1;
#X obj 953 641 metro 100;
#X obj 953 662 lorenz;
#X obj 953 683 unpack f f f;
#X obj 953 761 * 100;
#X obj 953 782 + 100;
#X obj 1003 762 * 100;
#X obj 1003 783 + 100;
#X msg 1056 583 100;
#X obj 1056 604 until;
#X floatatom 1002 602 5 0 0 0 - - -, f 5;
#X floatatom 1064 682 5 0 0 0 - - -, f 5;
#X obj 207 530 clone _setter 20;
#X floatatom 519 25 5 0 0 0 - - -, f 5;
#X obj 519 45 s spread;
#X floatatom 1077 726 5 0 0 0 - - -, f 5;
#X floatatom 967 808 5 0 0 0 - - -, f 5;
#X floatatom 1003 804 5 0 0 0 - - -, f 5;
#X obj 276 394 boids/boids2d;
#X msg 536 89 number 20 4 1.5 1.2 1.2 1.23 0.3;
#X obj 857 32 text define bpref;
#X obj 93 646 text get bpref;
#X msg 93 625 0;
#X floatatom 130 574 5 0 0 0 - - -, f 5;
#X floatatom 151 608 5 0 0 0 - - -, f 5;
#X msg 857 6 read bpref-0.txt;
#X obj 191 733 counter;
#X obj 229 636 bng 15 250 50 0 empty empty empty 17 7 0 10 -262144
-1 -1;
#X msg 257 647;
#X msg 231 705 0;
#X obj 174 666 sel 0 1 2;
#X obj 49 681 route bang;
#X obj 84 761 s boidParam;
#X obj 90 715 list trim;
#X obj 39 259 clone _gaviota 20 4;
#X floatatom 103 295 5 0 0 0 - - -, f 5;
#X obj 103 315 s base;
#X obj 953 704 fd_norm;
#X obj 1003 705 fd_norm;
#X obj 892 311 fd_send;
#X obj 897 349 fd_printer;
#N canvas 820 230 668 437 set 0;
#X obj 32 24 inlet;
#X obj 32 45 t a a;
#X obj 111 27 route number;
#X obj 208 29 route neighbors;
#X obj 324 28 route maxspeed;
#X obj 419 29 route minspeed;
#X obj 518 28 route center;
#X obj 119 110 route attract;
#X obj 218 110 route match;
#X obj 310 110 route avoid;
#X obj 401 110 route repel;
#X obj 505 110 route edgedist;
#X obj 133 200 route speed;
#X obj 226 202 route inertia;
#X obj 319 199 route accel;
#X obj 401 199 route prefdist;
#X obj 505 197 route flyrect;
#X obj 501 251 route attractpt;
#X obj 32 66 outlet;
#X obj 94 58 text set bpref 0 1;
#X obj 208 50 text set bpref 1 1;
#X obj 324 49 text set bpref 2 1;
#X obj 419 50 text set bpref 3 1;
#X obj 519 49 text set bpref 4 1;
#X obj 119 131 text set bpref 5 1;
#X obj 210 147 text set bpref 6 1;
#X obj 305 144 text set bpref 7 1;
#X obj 401 131 text set bpref 8 1;
#X obj 505 130 text set bpref 9 1;
#X obj 125 243 text set bpref 10 1;
#X obj 225 247 text set bpref 11 1;
#X obj 324 256 text set bpref 12 1;
#X obj 384 231 text set bpref 13 1;
#X obj 505 218 text set bpref 14 1;
#X obj 501 272 text set bpref 15 1;
#X connect 0 0 1 0;
#X connect 1 0 18 0;
#X connect 1 1 2 0;
#X connect 2 0 19 0;
#X connect 2 1 3 0;
#X connect 3 0 20 0;
#X connect 3 1 4 0;
#X connect 4 0 21 0;
#X connect 4 1 5 0;
#X connect 5 0 22 0;
#X connect 5 1 6 0;
#X connect 6 0 23 0;
#X connect 6 1 7 0;
#X connect 7 0 24 0;
#X connect 7 1 8 0;
#X connect 8 0 25 0;
#X connect 8 1 9 0;
#X connect 9 0 26 0;
#X connect 9 1 10 0;
#X connect 10 0 27 0;
#X connect 10 1 11 0;
#X connect 11 0 28 0;
#X connect 11 1 12 0;
#X connect 12 0 29 0;
#X connect 12 1 13 0;
#X connect 13 0 30 0;
#X connect 13 1 14 0;
#X connect 14 0 31 0;
#X connect 14 1 15 0;
#X connect 15 0 32 0;
#X connect 15 1 16 0;
#X connect 16 0 33 0;
#X connect 16 1 17 0;
#X connect 17 0 34 0;
#X restore 289 342 pd set preset;
#X obj 409 362;
#X msg 381 329 dump;
#X obj 370 387 s boidParam;
#N canvas 97 519 763 523 sounds2 0;
#X obj 230 347 env~;
#X floatatom 230 368 5 0 0 0 - - -, f 5;
#X obj 75 380 throw~ dacout-1;
#X obj 373 170 tabosc4~ 0-sin;
#X floatatom 433 138 5 0 0 0 - - -, f 5;
#X obj 175 223 +~;
#X floatatom 607 152 5 0 0 0 - - -, f 5;
#X obj 31 96 tabosc4~ 0-sin;
#X obj 98 262 tabosc4~ 0-sin;
#X obj 114 359 throw~ dacout-2;
#X floatatom 80 65 5 0 0 0 - - -, f 5;
#X obj 499 143 tabosc4~ 0-sin;
#X obj 387 194 *~;
#X obj 499 164 *~ 1;
#X floatatom 570 110 5 0 0 0 - - -, f 5;
#X floatatom 70 169 5 0 0 0 - - -, f 5;
#X obj 70 189 fd_seltab 0;
#X symbolatom 70 210 10 0 0 0 - - -, f 10;
#X msg 70 230 set \$1;
#X floatatom 456 34 5 0 0 0 - - -, f 5;
#X obj 456 54 fd_seltab 0;
#X symbolatom 456 75 10 0 0 0 - - -, f 10;
#X msg 456 95 set \$1;
#X floatatom 364 63 5 0 0 0 - - -, f 5;
#X obj 364 83 fd_seltab 0;
#X symbolatom 364 104 10 0 0 0 - - -, f 10;
#X msg 364 124 set \$1;
#X floatatom 289 127 5 0 0 0 - - -, f 5;
#X obj 191 118 tabosc4~ 0-sin;
#X obj 191 139 *~ 1;
#X floatatom 263 84 5 0 0 0 - - -, f 5;
#X floatatom 191 26 5 0 0 0 - - -, f 5;
#X obj 191 46 fd_seltab 0;
#X symbolatom 191 67 10 0 0 0 - - -, f 10;
#X msg 191 87 set \$1;
#X obj 179 167 *~;
#X floatatom 18 7 5 0 0 0 - - -, f 5;
#X obj 18 27 fd_seltab 0;
#X symbolatom 18 48 10 0 0 0 - - -, f 10;
#X msg 18 68 set \$1;
#X obj 105 329 *~ 0.1;
#X msg 619 411 0;
#X floatatom 413 6 5 0 0 0 - - -, f 5;
#X floatatom 142 33 5 0 0 0 - - -, f 5;
#X floatatom 285 18 5 0 0 0 - - -, f 5;
#X floatatom 609 29 5 0 0 0 - - -, f 5;
#X obj 609 49 * 10;
#X obj 384 35 * 10;
#X obj 296 49 * 3;
#X obj 142 53 * 4;
#X obj 548 12 * 5;
#X floatatom 672 29 5 0 0 0 - - -, f 5;
#X obj 647 219 tgl 15 0 empty empty empty 17 7 0 10 -262144 -1 -1 0
1;
#X obj 647 239 switch~;
#X connect 0 0 1 0;
#X connect 3 0 12 0;
#X connect 4 0 3 0;
#X connect 5 0 8 0;
#X connect 6 0 13 1;
#X connect 7 0 35 0;
#X connect 8 0 40 0;
#X connect 10 0 7 0;
#X connect 11 0 13 0;
#X connect 12 0 5 1;
#X connect 13 0 12 1;
#X connect 14 0 11 0;
#X connect 15 0 16 0;
#X connect 16 0 17 0;
#X connect 17 0 18 0;
#X connect 18 0 8 0;
#X connect 19 0 20 0;
#X connect 20 0 21 0;
#X connect 21 0 22 0;
#X connect 22 0 11 0;
#X connect 23 0 24 0;
#X connect 24 0 25 0;
#X connect 25 0 26 0;
#X connect 26 0 3 0;
#X connect 27 0 29 1;
#X connect 28 0 29 0;
#X connect 29 0 35 1;
#X connect 30 0 28 0;
#X connect 31 0 32 0;
#X connect 32 0 33 0;
#X connect 33 0 34 0;
#X connect 34 0 28 0;
#X connect 35 0 5 0;
#X connect 36 0 37 0;
#X connect 37 0 38 0;
#X connect 38 0 39 0;
#X connect 39 0 7 0;
#X connect 40 0 0 0;
#X connect 40 0 2 0;
#X connect 40 0 9 0;
#X connect 41 0 11 1;
#X connect 41 0 3 1;
#X connect 41 0 28 1;
#X connect 41 0 7 1;
#X connect 41 0 8 1;
#X connect 42 0 47 0;
#X connect 42 0 48 0;
#X connect 42 0 50 0;
#X connect 43 0 4 0;
#X connect 43 0 49 0;
#X connect 44 0 43 0;
#X connect 44 0 42 0;
#X connect 45 0 27 0;
#X connect 45 0 46 0;
#X connect 46 0 6 0;
#X connect 47 0 14 0;
#X connect 48 0 30 0;
#X connect 49 0 10 0;
#X connect 50 0 45 0;
#X connect 51 0 50 1;
#X connect 52 0 53 0;
#X restore 615 151 pd sounds2;
#X connect 3 0 4 0;
#X connect 5 0 6 0;
#X connect 6 0 8 0;
#X connect 7 0 10 0;
#X connect 8 0 7 0;
#X connect 8 1 17 0;
#X connect 8 2 26 0;
#X connect 9 0 10 1;
#X connect 10 0 11 0;
#X connect 11 0 157 0;
#X connect 12 0 15 0;
#X connect 13 0 3 0;
#X connect 14 0 6 1;
#X connect 15 0 157 1;
#X connect 16 0 157 0;
#X connect 17 0 9 0;
#X connect 18 0 20 0;
#X connect 19 0 18 0;
#X connect 21 0 22 0;
#X connect 22 0 23 0;
#X connect 23 0 24 0;
#X connect 24 0 25 0;
#X connect 26 0 27 0;
#X connect 27 0 11 1;
#X connect 28 0 67 0;
#X connect 29 0 66 0;
#X connect 30 0 29 0;
#X connect 31 0 32 0;
#X connect 32 0 66 0;
#X connect 33 0 34 0;
#X connect 34 0 66 0;
#X connect 35 0 36 0;
#X connect 36 0 66 0;
#X connect 37 0 38 0;
#X connect 38 0 66 0;
#X connect 39 0 40 0;
#X connect 40 0 66 0;
#X connect 41 0 42 0;
#X connect 42 0 66 0;
#X connect 43 0 44 0;
#X connect 44 0 66 0;
#X connect 45 0 46 0;
#X connect 46 0 66 0;
#X connect 47 0 48 0;
#X connect 48 0 66 0;
#X connect 49 0 50 0;
#X connect 50 0 66 0;
#X connect 51 0 52 0;
#X connect 52 0 66 0;
#X connect 53 0 54 0;
#X connect 54 0 66 0;
#X connect 55 0 67 0;
#X connect 56 0 69 0;
#X connect 57 0 69 1;
#X connect 58 0 69 2;
#X connect 59 0 69 3;
#X connect 60 0 73 0;
#X connect 61 0 73 1;
#X connect 62 0 63 0;
#X connect 63 0 66 0;
#X connect 64 0 65 0;
#X connect 65 0 67 0;
#X connect 68 0 66 0;
#X connect 69 0 68 0;
#X connect 70 0 69 4;
#X connect 71 0 69 5;
#X connect 72 0 66 0;
#X connect 73 0 72 0;
#X connect 74 0 73 2;
#X connect 75 0 164 0;
#X connect 76 0 121 0;
#X connect 77 0 78 0;
#X connect 78 0 76 0;
#X connect 79 0 78 1;
#X connect 80 0 87 0;
#X connect 81 0 87 0;
#X connect 87 0 82 0;
#X connect 87 0 93 0;
#X connect 87 0 92 0;
#X connect 87 0 83 0;
#X connect 87 0 94 0;
#X connect 87 0 84 0;
#X connect 87 0 89 0;
#X connect 87 0 90 0;
#X connect 87 0 86 0;
#X connect 87 0 91 0;
#X connect 87 0 95 0;
#X connect 87 0 122 0;
#X connect 88 0 87 0;
#X connect 96 0 26 1;
#X connect 97 0 27 1;
#X connect 101 0 135 2;
#X connect 102 0 135 0;
#X connect 103 0 104 0;
#X connect 104 0 105 0;
#X connect 105 0 106 0;
#X connect 105 1 110 3;
#X connect 106 0 110 0;
#X connect 107 0 108 0;
#X connect 108 0 109 0;
#X connect 109 0 111 0;
#X connect 109 1 111 1;
#X connect 110 0 111 2;
#X connect 112 0 113 0;
#X connect 113 0 114 0;
#X connect 113 1 115 0;
#X connect 114 0 116 0;
#X connect 115 0 114 1;
#X connect 116 0 17 0;
#X connect 117 0 118 0;
#X connect 118 0 157 2;
#X connect 119 0 118 0;
#X connect 120 0 118 0;
#X connect 121 0 135 0;
#X connect 121 0 157 1;
#X connect 121 1 167 0;
#X connect 123 0 124 0;
#X connect 124 0 125 0;
#X connect 125 0 126 0;
#X connect 126 0 160 0;
#X connect 126 1 161 0;
#X connect 127 0 128 0;
#X connect 128 0 73 0;
#X connect 128 0 139 0;
#X connect 129 0 130 0;
#X connect 130 0 73 1;
#X connect 130 0 140 0;
#X connect 131 0 132 0;
#X connect 132 0 125 0;
#X connect 133 0 124 1;
#X connect 134 0 127 1;
#X connect 134 0 129 1;
#X connect 136 0 137 0;
#X connect 138 0 128 1;
#X connect 138 0 130 1;
#X connect 144 0 154 0;
#X connect 144 1 153 0;
#X connect 145 0 144 0;
#X connect 146 0 144 0;
#X connect 147 0 144 1;
#X connect 148 0 143 0;
#X connect 149 0 144 0;
#X connect 150 0 149 0;
#X connect 152 0 149 0;
#X connect 153 1 150 0;
#X connect 153 2 152 0;
#X connect 154 1 156 0;
#X connect 156 0 155 0;
#X connect 157 0 135 1;
#X connect 158 0 159 0;
#X connect 160 1 127 0;
#X connect 161 1 129 0;
#X connect 164 0 121 0;
#X connect 166 0 121 0;
